# MagicaVoxel @ ephtracy

# material
mtllib S_Prism_Blocking.mtl
usemtl palette

# normals
vn -1 0 0
vn 1 0 0
vn 0 0 1
vn 0 0 -1
vn 0 -1 0
vn 0 1 0

# texcoords
vt 0.751953 0.5
vt 0.916016 0.5
vt 0.962891 0.5
vt 0.966797 0.5

# verts
v -9.5 0 9.5
v -9.5 0 -9.5
v -9.5 1 8.5
v -9.5 1 -8.5
v -9.5 3 8.5
v -9.5 3 -8.5
v -9.5 4 9.5
v -9.5 4 -9.5
v -9.5 22 9.5
v -9.5 22 -9.5
v -9.5 23 8.5
v -9.5 23 -8.5
v -9.5 24 8.5
v -9.5 24 -8.5
v -9.5 25 9.5
v -9.5 25 -9.5
v -8.5 4 8.5
v -8.5 4 -8.5
v -8.5 22 8.5
v -8.5 22 -8.5
v -6.5 4 -7.5
v -6.5 4 -8.5
v -6.5 22 -7.5
v -6.5 22 -8.5
v -5.5 4 -6.5
v -5.5 4 -7.5
v -5.5 22 -6.5
v -5.5 22 -7.5
v -5.5 22 -9.5
v -5.5 23 -7.5
v -5.5 23 -8.5
v -5.5 24 -7.5
v -5.5 24 -8.5
v -5.5 25 -7.5
v -5.5 25 -9.5
v -4.5 4 -5.5
v -4.5 4 -6.5
v -4.5 22 -5.5
v -4.5 22 -6.5
v -4.5 22 -7.5
v -4.5 23 -6.5
v -4.5 23 -7.5
v -4.5 24 -6.5
v -4.5 24 -7.5
v -4.5 25 -6.5
v -4.5 25 -7.5
v -3.5 4 -4.5
v -3.5 4 -5.5
v -3.5 22 -4.5
v -3.5 22 -5.5
v -3.5 22 -6.5
v -3.5 23 -5.5
v -3.5 23 -6.5
v -3.5 24 -5.5
v -3.5 24 -6.5
v -3.5 25 -5.5
v -3.5 25 -6.5
v -2.5 4 -3.5
v -2.5 4 -4.5
v -2.5 22 -3.5
v -2.5 22 -4.5
v -2.5 22 -5.5
v -2.5 23 -4.5
v -2.5 23 -5.5
v -2.5 24 -4.5
v -2.5 24 -5.5
v -2.5 25 -4.5
v -2.5 25 -5.5
v -1.5 4 -2.5
v -1.5 4 -3.5
v -1.5 22 -2.5
v -1.5 22 -3.5
v -1.5 22 -4.5
v -1.5 23 -3.5
v -1.5 23 -4.5
v -1.5 24 -3.5
v -1.5 24 -4.5
v -1.5 25 -3.5
v -1.5 25 -4.5
v -0.5 4 -1.5
v -0.5 4 -2.5
v -0.5 22 -1.5
v -0.5 22 -2.5
v -0.5 22 -3.5
v -0.5 23 -2.5
v -0.5 23 -3.5
v -0.5 24 -2.5
v -0.5 24 -3.5
v -0.5 25 -2.5
v -0.5 25 -3.5
v 0.5 4 -0.5
v 0.5 4 -1.5
v 0.5 22 -0.5
v 0.5 22 -1.5
v 0.5 22 -2.5
v 0.5 23 -1.5
v 0.5 23 -2.5
v 0.5 24 -1.5
v 0.5 24 -2.5
v 0.5 25 -1.5
v 0.5 25 -2.5
v 1.5 4 0.5
v 1.5 4 -0.5
v 1.5 22 0.5
v 1.5 22 -0.5
v 1.5 22 -1.5
v 1.5 23 -0.5
v 1.5 23 -1.5
v 1.5 24 -0.5
v 1.5 24 -1.5
v 1.5 25 -0.5
v 1.5 25 -1.5
v 2.5 4 1.5
v 2.5 4 0.5
v 2.5 22 1.5
v 2.5 22 0.5
v 2.5 22 -0.5
v 2.5 23 0.5
v 2.5 23 -0.5
v 2.5 24 0.5
v 2.5 24 -0.5
v 2.5 25 0.5
v 2.5 25 -0.5
v 3.5 4 2.5
v 3.5 4 1.5
v 3.5 22 2.5
v 3.5 22 1.5
v 3.5 22 0.5
v 3.5 23 1.5
v 3.5 23 0.5
v 3.5 24 1.5
v 3.5 24 0.5
v 3.5 25 1.5
v 3.5 25 0.5
v 4.5 4 3.5
v 4.5 4 2.5
v 4.5 22 3.5
v 4.5 22 2.5
v 4.5 22 1.5
v 4.5 23 2.5
v 4.5 23 1.5
v 4.5 24 2.5
v 4.5 24 1.5
v 4.5 25 2.5
v 4.5 25 1.5
v 5.5 4 4.5
v 5.5 4 3.5
v 5.5 22 4.5
v 5.5 22 3.5
v 5.5 22 2.5
v 5.5 23 3.5
v 5.5 23 2.5
v 5.5 24 3.5
v 5.5 24 2.5
v 5.5 25 3.5
v 5.5 25 2.5
v 6.5 4 5.5
v 6.5 4 4.5
v 6.5 22 5.5
v 6.5 22 4.5
v 6.5 22 3.5
v 6.5 23 4.5
v 6.5 23 3.5
v 6.5 24 4.5
v 6.5 24 3.5
v 6.5 25 4.5
v 6.5 25 3.5
v 7.5 4 6.5
v 7.5 4 5.5
v 7.5 22 6.5
v 7.5 22 5.5
v 7.5 22 4.5
v 7.5 23 5.5
v 7.5 23 4.5
v 7.5 24 5.5
v 7.5 24 4.5
v 7.5 25 5.5
v 7.5 25 4.5
v 8.5 4 8.5
v 8.5 4 6.5
v 8.5 22 8.5
v 8.5 22 6.5
v 9.5 0 9.5
v 9.5 0 -9.5
v 9.5 1 8.5
v 9.5 1 -8.5
v 9.5 3 8.5
v 9.5 3 -8.5
v 9.5 4 9.5
v 9.5 4 -9.5
v 9.5 22 9.5
v 9.5 22 5.5
v 9.5 23 8.5
v 9.5 23 6.5
v 9.5 24 8.5
v 9.5 24 6.5
v 9.5 25 9.5
v 9.5 25 5.5
v -9.5 0 9.5
v -9.5 4 9.5
v -9.5 22 9.5
v -9.5 25 9.5
v -8.5 1 9.5
v -8.5 3 9.5
v -8.5 23 9.5
v -8.5 24 9.5
v 8.5 1 9.5
v 8.5 3 9.5
v 8.5 23 9.5
v 8.5 24 9.5
v 9.5 0 9.5
v 9.5 4 9.5
v 9.5 22 9.5
v 9.5 25 9.5
v -8.5 4 8.5
v -8.5 22 8.5
v 8.5 4 8.5
v 8.5 22 8.5
v 7.5 4 6.5
v 7.5 22 6.5
v 8.5 4 6.5
v 8.5 22 6.5
v 6.5 4 5.5
v 6.5 22 5.5
v 7.5 4 5.5
v 7.5 22 5.5
v 7.5 23 5.5
v 7.5 24 5.5
v 7.5 25 5.5
v 8.5 23 5.5
v 8.5 24 5.5
v 9.5 22 5.5
v 9.5 25 5.5
v 5.5 4 4.5
v 5.5 22 4.5
v 6.5 4 4.5
v 6.5 22 4.5
v 6.5 23 4.5
v 6.5 24 4.5
v 6.5 25 4.5
v 7.5 22 4.5
v 7.5 23 4.5
v 7.5 24 4.5
v 7.5 25 4.5
v 4.5 4 3.5
v 4.5 22 3.5
v 5.5 4 3.5
v 5.5 22 3.5
v 5.5 23 3.5
v 5.5 24 3.5
v 5.5 25 3.5
v 6.5 22 3.5
v 6.5 23 3.5
v 6.5 24 3.5
v 6.5 25 3.5
v 3.5 4 2.5
v 3.5 22 2.5
v 4.5 4 2.5
v 4.5 22 2.5
v 4.5 23 2.5
v 4.5 24 2.5
v 4.5 25 2.5
v 5.5 22 2.5
v 5.5 23 2.5
v 5.5 24 2.5
v 5.5 25 2.5
v 2.5 4 1.5
v 2.5 22 1.5
v 3.5 4 1.5
v 3.5 22 1.5
v 3.5 23 1.5
v 3.5 24 1.5
v 3.5 25 1.5
v 4.5 22 1.5
v 4.5 23 1.5
v 4.5 24 1.5
v 4.5 25 1.5
v 1.5 4 0.5
v 1.5 22 0.5
v 2.5 4 0.5
v 2.5 22 0.5
v 2.5 23 0.5
v 2.5 24 0.5
v 2.5 25 0.5
v 3.5 22 0.5
v 3.5 23 0.5
v 3.5 24 0.5
v 3.5 25 0.5
v 0.5 4 -0.5
v 0.5 22 -0.5
v 1.5 4 -0.5
v 1.5 22 -0.5
v 1.5 23 -0.5
v 1.5 24 -0.5
v 1.5 25 -0.5
v 2.5 22 -0.5
v 2.5 23 -0.5
v 2.5 24 -0.5
v 2.5 25 -0.5
v -0.5 4 -1.5
v -0.5 22 -1.5
v 0.5 4 -1.5
v 0.5 22 -1.5
v 0.5 23 -1.5
v 0.5 24 -1.5
v 0.5 25 -1.5
v 1.5 22 -1.5
v 1.5 23 -1.5
v 1.5 24 -1.5
v 1.5 25 -1.5
v -1.5 4 -2.5
v -1.5 22 -2.5
v -0.5 4 -2.5
v -0.5 22 -2.5
v -0.5 23 -2.5
v -0.5 24 -2.5
v -0.5 25 -2.5
v 0.5 22 -2.5
v 0.5 23 -2.5
v 0.5 24 -2.5
v 0.5 25 -2.5
v -2.5 4 -3.5
v -2.5 22 -3.5
v -1.5 4 -3.5
v -1.5 22 -3.5
v -1.5 23 -3.5
v -1.5 24 -3.5
v -1.5 25 -3.5
v -0.5 22 -3.5
v -0.5 23 -3.5
v -0.5 24 -3.5
v -0.5 25 -3.5
v -3.5 4 -4.5
v -3.5 22 -4.5
v -2.5 4 -4.5
v -2.5 22 -4.5
v -2.5 23 -4.5
v -2.5 24 -4.5
v -2.5 25 -4.5
v -1.5 22 -4.5
v -1.5 23 -4.5
v -1.5 24 -4.5
v -1.5 25 -4.5
v -4.5 4 -5.5
v -4.5 22 -5.5
v -3.5 4 -5.5
v -3.5 22 -5.5
v -3.5 23 -5.5
v -3.5 24 -5.5
v -3.5 25 -5.5
v -2.5 22 -5.5
v -2.5 23 -5.5
v -2.5 24 -5.5
v -2.5 25 -5.5
v -5.5 4 -6.5
v -5.5 22 -6.5
v -4.5 4 -6.5
v -4.5 22 -6.5
v -4.5 23 -6.5
v -4.5 24 -6.5
v -4.5 25 -6.5
v -3.5 22 -6.5
v -3.5 23 -6.5
v -3.5 24 -6.5
v -3.5 25 -6.5
v -6.5 4 -7.5
v -6.5 22 -7.5
v -5.5 4 -7.5
v -5.5 22 -7.5
v -5.5 23 -7.5
v -5.5 24 -7.5
v -5.5 25 -7.5
v -4.5 22 -7.5
v -4.5 23 -7.5
v -4.5 24 -7.5
v -4.5 25 -7.5
v -8.5 4 -8.5
v -8.5 22 -8.5
v -6.5 4 -8.5
v -6.5 22 -8.5
v -9.5 0 -9.5
v -9.5 4 -9.5
v -9.5 22 -9.5
v -9.5 25 -9.5
v -8.5 1 -9.5
v -8.5 3 -9.5
v -8.5 23 -9.5
v -8.5 24 -9.5
v -6.5 23 -9.5
v -6.5 24 -9.5
v -5.5 22 -9.5
v -5.5 25 -9.5
v 8.5 1 -9.5
v 8.5 3 -9.5
v 9.5 0 -9.5
v 9.5 4 -9.5
v -9.5 0 9.5
v 9.5 0 9.5
v -8.5 0 8.5
v 8.5 0 8.5
v -8.5 0 -8.5
v 8.5 0 -8.5
v -9.5 0 -9.5
v 9.5 0 -9.5
v -9.5 22 9.5
v 9.5 22 9.5
v -8.5 22 8.5
v 8.5 22 8.5
v 7.5 22 6.5
v 8.5 22 6.5
v 6.5 22 5.5
v 7.5 22 5.5
v 9.5 22 5.5
v 5.5 22 4.5
v 6.5 22 4.5
v 7.5 22 4.5
v 4.5 22 3.5
v 5.5 22 3.5
v 6.5 22 3.5
v 3.5 22 2.5
v 4.5 22 2.5
v 5.5 22 2.5
v 2.5 22 1.5
v 3.5 22 1.5
v 4.5 22 1.5
v 1.5 22 0.5
v 2.5 22 0.5
v 3.5 22 0.5
v 0.5 22 -0.5
v 1.5 22 -0.5
v 2.5 22 -0.5
v -0.5 22 -1.5
v 0.5 22 -1.5
v 1.5 22 -1.5
v -1.5 22 -2.5
v -0.5 22 -2.5
v 0.5 22 -2.5
v -2.5 22 -3.5
v -1.5 22 -3.5
v -0.5 22 -3.5
v -3.5 22 -4.5
v -2.5 22 -4.5
v -1.5 22 -4.5
v -4.5 22 -5.5
v -3.5 22 -5.5
v -2.5 22 -5.5
v -5.5 22 -6.5
v -4.5 22 -6.5
v -3.5 22 -6.5
v -6.5 22 -7.5
v -5.5 22 -7.5
v -4.5 22 -7.5
v -8.5 22 -8.5
v -6.5 22 -8.5
v -9.5 22 -9.5
v -5.5 22 -9.5
v -9.5 4 9.5
v 9.5 4 9.5
v -8.5 4 8.5
v 8.5 4 8.5
v 7.5 4 6.5
v 8.5 4 6.5
v 6.5 4 5.5
v 7.5 4 5.5
v 5.5 4 4.5
v 6.5 4 4.5
v 4.5 4 3.5
v 5.5 4 3.5
v 6.5 4 3.5
v 7.5 4 3.5
v 3.5 4 2.5
v 4.5 4 2.5
v 2.5 4 1.5
v 3.5 4 1.5
v 1.5 4 0.5
v 2.5 4 0.5
v 0.5 4 -0.5
v 1.5 4 -0.5
v -0.5 4 -1.5
v 0.5 4 -1.5
v -1.5 4 -2.5
v -0.5 4 -2.5
v 2.5 4 -2.5
v 5.5 4 -2.5
v -2.5 4 -3.5
v -1.5 4 -3.5
v 3.5 4 -3.5
v 4.5 4 -3.5
v -3.5 4 -4.5
v -2.5 4 -4.5
v 3.5 4 -4.5
v 4.5 4 -4.5
v -4.5 4 -5.5
v -3.5 4 -5.5
v 2.5 4 -5.5
v 5.5 4 -5.5
v -5.5 4 -6.5
v -4.5 4 -6.5
v -3.5 4 -6.5
v 6.5 4 -6.5
v -6.5 4 -7.5
v -5.5 4 -7.5
v -3.5 4 -7.5
v 7.5 4 -7.5
v -8.5 4 -8.5
v -6.5 4 -8.5
v 8.5 4 -8.5
v -9.5 4 -9.5
v 9.5 4 -9.5
v -9.5 25 9.5
v 9.5 25 9.5
v -8.5 25 8.5
v 8.5 25 8.5
v -7.5 25 7.5
v 6.5 25 7.5
v -6.5 25 6.5
v 6.5 25 6.5
v 7.5 25 6.5
v 8.5 25 6.5
v -5.5 25 5.5
v -2.5 25 5.5
v 6.5 25 5.5
v 7.5 25 5.5
v 9.5 25 5.5
v -4.5 25 4.5
v -3.5 25 4.5
v 5.5 25 4.5
v 6.5 25 4.5
v 7.5 25 4.5
v -4.5 25 3.5
v -3.5 25 3.5
v 4.5 25 3.5
v 5.5 25 3.5
v 6.5 25 3.5
v -5.5 25 2.5
v -2.5 25 2.5
v 3.5 25 2.5
v 4.5 25 2.5
v 5.5 25 2.5
v 2.5 25 1.5
v 3.5 25 1.5
v 4.5 25 1.5
v 1.5 25 0.5
v 2.5 25 0.5
v 3.5 25 0.5
v 0.5 25 -0.5
v 1.5 25 -0.5
v 2.5 25 -0.5
v -0.5 25 -1.5
v 0.5 25 -1.5
v 1.5 25 -1.5
v -1.5 25 -2.5
v -0.5 25 -2.5
v 0.5 25 -2.5
v -2.5 25 -3.5
v -1.5 25 -3.5
v -0.5 25 -3.5
v -3.5 25 -4.5
v -2.5 25 -4.5
v -1.5 25 -4.5
v -4.5 25 -5.5
v -3.5 25 -5.5
v -2.5 25 -5.5
v -7.5 25 -6.5
v -6.5 25 -6.5
v -5.5 25 -6.5
v -4.5 25 -6.5
v -3.5 25 -6.5
v -6.5 25 -7.5
v -5.5 25 -7.5
v -4.5 25 -7.5
v -8.5 25 -8.5
v -6.5 25 -8.5
v -9.5 25 -9.5
v -5.5 25 -9.5

# faces
f 3/2/1 2/2/1 1/2/1
f 4/2/1 2/2/1 3/2/1
f 5/2/1 3/2/1 1/2/1
f 5/3/1 4/3/1 3/3/1
f 6/2/1 2/2/1 4/2/1
f 6/3/1 4/3/1 5/3/1
f 7/2/1 5/2/1 1/2/1
f 7/2/1 6/2/1 5/2/1
f 8/2/1 2/2/1 6/2/1
f 8/2/1 6/2/1 7/2/1
f 11/2/1 10/2/1 9/2/1
f 12/2/1 10/2/1 11/2/1
f 13/2/1 11/2/1 9/2/1
f 13/3/1 12/3/1 11/3/1
f 14/2/1 10/2/1 12/2/1
f 14/3/1 12/3/1 13/3/1
f 15/2/1 13/2/1 9/2/1
f 15/2/1 14/2/1 13/2/1
f 16/2/1 10/2/1 14/2/1
f 16/2/1 14/2/1 15/2/1
f 19/1/1 18/1/1 17/1/1
f 20/1/1 18/1/1 19/1/1
f 21/1/2 22/1/2 23/1/2
f 23/1/2 22/1/2 24/1/2
f 25/1/2 26/1/2 27/1/2
f 27/1/2 26/1/2 28/1/2
f 28/2/2 29/2/2 30/2/2
f 30/2/2 29/2/2 31/2/2
f 30/3/2 31/3/2 32/3/2
f 31/2/2 29/2/2 33/2/2
f 32/3/2 31/3/2 33/3/2
f 32/2/2 33/2/2 34/2/2
f 33/2/2 29/2/2 35/2/2
f 34/2/2 33/2/2 35/2/2
f 36/1/2 37/1/2 38/1/2
f 38/1/2 37/1/2 39/1/2
f 39/2/2 40/2/2 41/2/2
f 41/2/2 40/2/2 42/2/2
f 41/3/2 42/3/2 43/3/2
f 43/3/2 42/3/2 44/3/2
f 43/2/2 44/2/2 45/2/2
f 45/2/2 44/2/2 46/2/2
f 47/1/2 48/1/2 49/1/2
f 49/1/2 48/1/2 50/1/2
f 50/2/2 51/2/2 52/2/2
f 52/2/2 51/2/2 53/2/2
f 52/3/2 53/3/2 54/3/2
f 54/3/2 53/3/2 55/3/2
f 54/2/2 55/2/2 56/2/2
f 56/2/2 55/2/2 57/2/2
f 58/1/2 59/1/2 60/1/2
f 60/1/2 59/1/2 61/1/2
f 61/2/2 62/2/2 63/2/2
f 63/2/2 62/2/2 64/2/2
f 63/3/2 64/3/2 65/3/2
f 65/3/2 64/3/2 66/3/2
f 65/2/2 66/2/2 67/2/2
f 67/2/2 66/2/2 68/2/2
f 69/1/2 70/1/2 71/1/2
f 71/1/2 70/1/2 72/1/2
f 72/2/2 73/2/2 74/2/2
f 74/2/2 73/2/2 75/2/2
f 74/3/2 75/3/2 76/3/2
f 76/3/2 75/3/2 77/3/2
f 76/2/2 77/2/2 78/2/2
f 78/2/2 77/2/2 79/2/2
f 80/1/2 81/1/2 82/1/2
f 82/1/2 81/1/2 83/1/2
f 83/2/2 84/2/2 85/2/2
f 85/2/2 84/2/2 86/2/2
f 85/3/2 86/3/2 87/3/2
f 87/3/2 86/3/2 88/3/2
f 87/2/2 88/2/2 89/2/2
f 89/2/2 88/2/2 90/2/2
f 91/1/2 92/1/2 93/1/2
f 93/1/2 92/1/2 94/1/2
f 94/2/2 95/2/2 96/2/2
f 96/2/2 95/2/2 97/2/2
f 96/3/2 97/3/2 98/3/2
f 98/3/2 97/3/2 99/3/2
f 98/2/2 99/2/2 100/2/2
f 100/2/2 99/2/2 101/2/2
f 102/1/2 103/1/2 104/1/2
f 104/1/2 103/1/2 105/1/2
f 105/2/2 106/2/2 107/2/2
f 107/2/2 106/2/2 108/2/2
f 107/3/2 108/3/2 109/3/2
f 109/3/2 108/3/2 110/3/2
f 109/2/2 110/2/2 111/2/2
f 111/2/2 110/2/2 112/2/2
f 113/1/2 114/1/2 115/1/2
f 115/1/2 114/1/2 116/1/2
f 116/2/2 117/2/2 118/2/2
f 118/2/2 117/2/2 119/2/2
f 118/3/2 119/3/2 120/3/2
f 120/3/2 119/3/2 121/3/2
f 120/2/2 121/2/2 122/2/2
f 122/2/2 121/2/2 123/2/2
f 124/1/2 125/1/2 126/1/2
f 126/1/2 125/1/2 127/1/2
f 127/2/2 128/2/2 129/2/2
f 129/2/2 128/2/2 130/2/2
f 129/3/2 130/3/2 131/3/2
f 131/3/2 130/3/2 132/3/2
f 131/2/2 132/2/2 133/2/2
f 133/2/2 132/2/2 134/2/2
f 135/1/2 136/1/2 137/1/2
f 137/1/2 136/1/2 138/1/2
f 138/2/2 139/2/2 140/2/2
f 140/2/2 139/2/2 141/2/2
f 140/3/2 141/3/2 142/3/2
f 142/3/2 141/3/2 143/3/2
f 142/2/2 143/2/2 144/2/2
f 144/2/2 143/2/2 145/2/2
f 146/1/2 147/1/2 148/1/2
f 148/1/2 147/1/2 149/1/2
f 149/2/2 150/2/2 151/2/2
f 151/2/2 150/2/2 152/2/2
f 151/3/2 152/3/2 153/3/2
f 153/3/2 152/3/2 154/3/2
f 153/2/2 154/2/2 155/2/2
f 155/2/2 154/2/2 156/2/2
f 157/1/2 158/1/2 159/1/2
f 159/1/2 158/1/2 160/1/2
f 160/2/2 161/2/2 162/2/2
f 162/2/2 161/2/2 163/2/2
f 162/3/2 163/3/2 164/3/2
f 164/3/2 163/3/2 165/3/2
f 164/2/2 165/2/2 166/2/2
f 166/2/2 165/2/2 167/2/2
f 168/1/2 169/1/2 170/1/2
f 170/1/2 169/1/2 171/1/2
f 171/2/2 172/2/2 173/2/2
f 173/2/2 172/2/2 174/2/2
f 173/3/2 174/3/2 175/3/2
f 175/3/2 174/3/2 176/3/2
f 175/2/2 176/2/2 177/2/2
f 177/2/2 176/2/2 178/2/2
f 179/1/2 180/1/2 181/1/2
f 181/1/2 180/1/2 182/1/2
f 183/2/2 184/2/2 185/2/2
f 185/2/2 184/2/2 186/2/2
f 183/2/2 185/2/2 187/2/2
f 185/3/2 186/3/2 187/3/2
f 186/2/2 184/2/2 188/2/2
f 187/3/2 186/3/2 188/3/2
f 183/2/2 187/2/2 189/2/2
f 187/2/2 188/2/2 189/2/2
f 188/2/2 184/2/2 190/2/2
f 189/2/2 188/2/2 190/2/2
f 191/2/2 192/2/2 193/2/2
f 193/2/2 192/2/2 194/2/2
f 191/2/2 193/2/2 195/2/2
f 193/3/2 194/3/2 195/3/2
f 194/2/2 192/2/2 196/2/2
f 195/3/2 194/3/2 196/3/2
f 191/2/2 195/2/2 197/2/2
f 195/2/2 196/2/2 197/2/2
f 196/2/2 192/2/2 198/2/2
f 197/2/2 196/2/2 198/2/2
f 203/2/3 200/2/3 199/2/3
f 204/2/3 200/2/3 203/2/3
f 205/2/3 202/2/3 201/2/3
f 206/2/3 202/2/3 205/2/3
f 207/2/3 203/2/3 199/2/3
f 207/3/3 204/3/3 203/3/3
f 208/2/3 200/2/3 204/2/3
f 208/3/3 204/3/3 207/3/3
f 209/3/3 206/3/3 205/3/3
f 209/2/3 205/2/3 201/2/3
f 210/2/3 202/2/3 206/2/3
f 210/3/3 206/3/3 209/3/3
f 211/2/3 207/2/3 199/2/3
f 211/2/3 208/2/3 207/2/3
f 212/2/3 200/2/3 208/2/3
f 212/2/3 208/2/3 211/2/3
f 213/2/3 209/2/3 201/2/3
f 213/2/3 210/2/3 209/2/3
f 214/2/3 202/2/3 210/2/3
f 214/2/3 210/2/3 213/2/3
f 217/1/3 216/1/3 215/1/3
f 218/1/3 216/1/3 217/1/3
f 219/1/4 220/1/4 221/1/4
f 221/1/4 220/1/4 222/1/4
f 223/1/4 224/1/4 225/1/4
f 225/1/4 224/1/4 226/1/4
f 226/2/4 227/2/4 230/2/4
f 227/3/4 228/3/4 230/3/4
f 228/2/4 229/2/4 231/2/4
f 230/3/4 228/3/4 231/3/4
f 226/2/4 230/2/4 232/2/4
f 230/2/4 231/2/4 232/2/4
f 231/2/4 229/2/4 233/2/4
f 232/2/4 231/2/4 233/2/4
f 234/1/4 235/1/4 236/1/4
f 236/1/4 235/1/4 237/1/4
f 237/2/4 238/2/4 241/2/4
f 238/3/4 239/3/4 242/3/4
f 241/2/4 238/2/4 242/2/4
f 239/2/4 240/2/4 243/2/4
f 242/3/4 239/3/4 243/3/4
f 243/2/4 240/2/4 244/2/4
f 245/1/4 246/1/4 247/1/4
f 247/1/4 246/1/4 248/1/4
f 248/2/4 249/2/4 252/2/4
f 249/3/4 250/3/4 253/3/4
f 252/2/4 249/2/4 253/2/4
f 250/2/4 251/2/4 254/2/4
f 253/3/4 250/3/4 254/3/4
f 254/2/4 251/2/4 255/2/4
f 256/1/4 257/1/4 258/1/4
f 258/1/4 257/1/4 259/1/4
f 259/2/4 260/2/4 263/2/4
f 260/3/4 261/3/4 264/3/4
f 263/2/4 260/2/4 264/2/4
f 261/2/4 262/2/4 265/2/4
f 264/3/4 261/3/4 265/3/4
f 265/2/4 262/2/4 266/2/4
f 267/1/4 268/1/4 269/1/4
f 269/1/4 268/1/4 270/1/4
f 270/2/4 271/2/4 274/2/4
f 271/3/4 272/3/4 275/3/4
f 274/2/4 271/2/4 275/2/4
f 272/2/4 273/2/4 276/2/4
f 275/3/4 272/3/4 276/3/4
f 276/2/4 273/2/4 277/2/4
f 278/1/4 279/1/4 280/1/4
f 280/1/4 279/1/4 281/1/4
f 281/2/4 282/2/4 285/2/4
f 282/3/4 283/3/4 286/3/4
f 285/2/4 282/2/4 286/2/4
f 283/2/4 284/2/4 287/2/4
f 286/3/4 283/3/4 287/3/4
f 287/2/4 284/2/4 288/2/4
f 289/1/4 290/1/4 291/1/4
f 291/1/4 290/1/4 292/1/4
f 292/2/4 293/2/4 296/2/4
f 293/3/4 294/3/4 297/3/4
f 296/2/4 293/2/4 297/2/4
f 294/2/4 295/2/4 298/2/4
f 297/3/4 294/3/4 298/3/4
f 298/2/4 295/2/4 299/2/4
f 300/1/4 301/1/4 302/1/4
f 302/1/4 301/1/4 303/1/4
f 303/2/4 304/2/4 307/2/4
f 304/3/4 305/3/4 308/3/4
f 307/2/4 304/2/4 308/2/4
f 305/2/4 306/2/4 309/2/4
f 308/3/4 305/3/4 309/3/4
f 309/2/4 306/2/4 310/2/4
f 311/1/4 312/1/4 313/1/4
f 313/1/4 312/1/4 314/1/4
f 314/2/4 315/2/4 318/2/4
f 315/3/4 316/3/4 319/3/4
f 318/2/4 315/2/4 319/2/4
f 316/2/4 317/2/4 320/2/4
f 319/3/4 316/3/4 320/3/4
f 320/2/4 317/2/4 321/2/4
f 322/1/4 323/1/4 324/1/4
f 324/1/4 323/1/4 325/1/4
f 325/2/4 326/2/4 329/2/4
f 326/3/4 327/3/4 330/3/4
f 329/2/4 326/2/4 330/2/4
f 327/2/4 328/2/4 331/2/4
f 330/3/4 327/3/4 331/3/4
f 331/2/4 328/2/4 332/2/4
f 333/1/4 334/1/4 335/1/4
f 335/1/4 334/1/4 336/1/4
f 336/2/4 337/2/4 340/2/4
f 337/3/4 338/3/4 341/3/4
f 340/2/4 337/2/4 341/2/4
f 338/2/4 339/2/4 342/2/4
f 341/3/4 338/3/4 342/3/4
f 342/2/4 339/2/4 343/2/4
f 344/1/4 345/1/4 346/1/4
f 346/1/4 345/1/4 347/1/4
f 347/2/4 348/2/4 351/2/4
f 348/3/4 349/3/4 352/3/4
f 351/2/4 348/2/4 352/2/4
f 349/2/4 350/2/4 353/2/4
f 352/3/4 349/3/4 353/3/4
f 353/2/4 350/2/4 354/2/4
f 355/1/4 356/1/4 357/1/4
f 357/1/4 356/1/4 358/1/4
f 358/2/4 359/2/4 362/2/4
f 359/3/4 360/3/4 363/3/4
f 362/2/4 359/2/4 363/2/4
f 360/2/4 361/2/4 364/2/4
f 363/3/4 360/3/4 364/3/4
f 364/2/4 361/2/4 365/2/4
f 366/1/4 367/1/4 368/1/4
f 368/1/4 367/1/4 369/1/4
f 369/2/4 370/2/4 373/2/4
f 370/3/4 371/3/4 374/3/4
f 373/2/4 370/2/4 374/2/4
f 371/2/4 372/2/4 375/2/4
f 374/3/4 371/3/4 375/3/4
f 375/2/4 372/2/4 376/2/4
f 377/1/4 378/1/4 379/1/4
f 379/1/4 378/1/4 380/1/4
f 381/2/4 382/2/4 385/2/4
f 385/2/4 382/2/4 386/2/4
f 383/2/4 384/2/4 387/2/4
f 387/2/4 384/2/4 388/2/4
f 383/2/4 387/2/4 389/2/4
f 387/3/4 388/3/4 389/3/4
f 388/2/4 384/2/4 390/2/4
f 389/3/4 388/3/4 390/3/4
f 383/2/4 389/2/4 391/2/4
f 389/2/4 390/2/4 391/2/4
f 390/2/4 384/2/4 392/2/4
f 391/2/4 390/2/4 392/2/4
f 381/2/4 385/2/4 393/2/4
f 385/3/4 386/3/4 393/3/4
f 386/2/4 382/2/4 394/2/4
f 393/3/4 386/3/4 394/3/4
f 381/2/4 393/2/4 395/2/4
f 393/2/4 394/2/4 395/2/4
f 394/2/4 382/2/4 396/2/4
f 395/2/4 394/2/4 396/2/4
f 399/2/5 398/2/5 397/2/5
f 400/2/5 398/2/5 399/2/5
f 401/2/5 399/2/5 397/2/5
f 401/3/5 400/3/5 399/3/5
f 402/2/5 398/2/5 400/2/5
f 402/3/5 400/3/5 401/3/5
f 403/2/5 401/2/5 397/2/5
f 403/2/5 402/2/5 401/2/5
f 404/2/5 398/2/5 402/2/5
f 404/2/5 402/2/5 403/2/5
f 407/2/5 406/2/5 405/2/5
f 408/2/5 406/2/5 407/2/5
f 410/2/5 406/2/5 408/2/5
f 412/2/5 410/2/5 409/2/5
f 413/2/5 406/2/5 410/2/5
f 413/2/5 410/2/5 412/2/5
f 415/2/5 412/2/5 411/2/5
f 416/2/5 412/2/5 415/2/5
f 418/2/5 415/2/5 414/2/5
f 419/2/5 415/2/5 418/2/5
f 421/2/5 418/2/5 417/2/5
f 422/2/5 418/2/5 421/2/5
f 424/2/5 421/2/5 420/2/5
f 425/2/5 421/2/5 424/2/5
f 427/2/5 424/2/5 423/2/5
f 428/2/5 424/2/5 427/2/5
f 430/2/5 427/2/5 426/2/5
f 431/2/5 427/2/5 430/2/5
f 433/2/5 430/2/5 429/2/5
f 434/2/5 430/2/5 433/2/5
f 436/2/5 433/2/5 432/2/5
f 437/2/5 433/2/5 436/2/5
f 439/2/5 436/2/5 435/2/5
f 440/2/5 436/2/5 439/2/5
f 442/2/5 439/2/5 438/2/5
f 443/2/5 439/2/5 442/2/5
f 445/2/5 442/2/5 441/2/5
f 446/2/5 442/2/5 445/2/5
f 448/2/5 445/2/5 444/2/5
f 449/2/5 445/2/5 448/2/5
f 451/2/5 448/2/5 447/2/5
f 452/2/5 448/2/5 451/2/5
f 453/2/5 407/2/5 405/2/5
f 454/2/5 451/2/5 450/2/5
f 455/2/5 453/2/5 405/2/5
f 455/2/5 454/2/5 453/2/5
f 456/2/5 451/2/5 454/2/5
f 456/2/5 454/2/5 455/2/5
f 457/2/6 458/2/6 459/2/6
f 459/2/6 458/2/6 460/2/6
f 460/2/6 458/2/6 462/2/6
f 461/3/6 462/3/6 464/3/6
f 463/3/6 464/3/6 466/3/6
f 465/3/6 466/3/6 468/3/6
f 466/3/6 464/3/6 469/3/6
f 468/3/6 466/3/6 469/3/6
f 464/3/6 462/3/6 470/3/6
f 469/3/6 464/3/6 470/3/6
f 468/3/6 469/3/6 472/3/6
f 467/3/6 468/3/6 472/3/6
f 471/3/6 472/3/6 474/3/6
f 473/3/6 474/3/6 476/3/6
f 475/3/6 476/3/6 478/3/6
f 477/3/6 478/3/6 480/3/6
f 479/3/6 480/3/6 482/3/6
f 476/3/6 474/3/6 483/3/6
f 478/3/6 476/3/6 483/3/6
f 482/3/6 480/3/6 483/3/6
f 480/3/6 478/3/6 483/3/6
f 472/3/6 469/3/6 484/3/6
f 483/3/6 474/3/6 484/3/6
f 474/3/6 472/3/6 484/3/6
f 482/3/6 483/3/6 486/3/6
f 481/3/6 482/3/6 486/3/6
f 483/4/6 484/4/6 487/4/6
f 487/4/6 484/4/6 488/4/6
f 485/3/6 486/3/6 490/3/6
f 483/4/6 487/4/6 491/4/6
f 487/3/6 488/3/6 491/3/6
f 488/4/6 484/4/6 492/4/6
f 491/3/6 488/3/6 492/3/6
f 489/3/6 490/3/6 494/3/6
f 483/4/6 491/4/6 495/4/6
f 486/3/6 483/3/6 495/3/6
f 494/3/6 490/3/6 495/3/6
f 490/3/6 486/3/6 495/3/6
f 491/4/6 492/4/6 495/4/6
f 484/3/6 469/3/6 496/3/6
f 495/4/6 492/4/6 496/4/6
f 492/4/6 484/4/6 496/4/6
f 494/3/6 495/3/6 498/3/6
f 493/3/6 494/3/6 498/3/6
f 495/3/6 496/3/6 498/3/6
f 498/3/6 496/3/6 499/3/6
f 469/4/6 470/4/6 500/4/6
f 499/3/6 496/3/6 500/3/6
f 496/3/6 469/3/6 500/3/6
f 498/3/6 499/3/6 502/3/6
f 497/3/6 498/3/6 502/3/6
f 499/4/6 500/4/6 503/4/6
f 502/3/6 499/3/6 503/3/6
f 470/3/6 462/3/6 504/3/6
f 503/4/6 500/4/6 504/4/6
f 500/4/6 470/4/6 504/4/6
f 457/2/6 459/2/6 505/2/6
f 502/3/6 503/3/6 506/3/6
f 501/3/6 502/3/6 506/3/6
f 503/3/6 504/3/6 506/3/6
f 504/3/6 462/3/6 507/3/6
f 462/2/6 458/2/6 507/2/6
f 506/3/6 504/3/6 507/3/6
f 505/2/6 506/2/6 508/2/6
f 457/2/6 505/2/6 508/2/6
f 506/2/6 507/2/6 508/2/6
f 507/2/6 458/2/6 509/2/6
f 508/2/6 507/2/6 509/2/6
f 510/2/6 511/2/6 512/2/6
f 512/2/6 511/2/6 513/2/6
f 512/3/6 513/3/6 514/3/6
f 514/3/6 513/3/6 515/3/6
f 514/4/6 515/4/6 516/4/6
f 515/3/6 513/3/6 517/3/6
f 516/4/6 515/4/6 517/4/6
f 517/3/6 513/3/6 518/3/6
f 513/2/6 511/2/6 519/2/6
f 518/3/6 513/3/6 519/3/6
f 517/3/6 518/3/6 520/3/6
f 516/3/6 517/3/6 520/3/6
f 520/3/6 518/3/6 521/3/6
f 521/3/6 518/3/6 522/3/6
f 518/2/6 519/2/6 523/2/6
f 522/3/6 518/3/6 523/3/6
f 519/2/6 511/2/6 524/2/6
f 523/2/6 519/2/6 524/2/6
f 520/4/6 521/4/6 525/4/6
f 525/4/6 521/4/6 526/4/6
f 521/3/6 522/3/6 527/3/6
f 522/2/6 523/2/6 528/2/6
f 527/3/6 522/3/6 528/3/6
f 528/2/6 523/2/6 529/2/6
f 520/4/6 525/4/6 530/4/6
f 525/3/6 526/3/6 530/3/6
f 526/4/6 521/4/6 531/4/6
f 530/3/6 526/3/6 531/3/6
f 521/3/6 527/3/6 532/3/6
f 527/2/6 528/2/6 533/2/6
f 532/3/6 527/3/6 533/3/6
f 533/2/6 528/2/6 534/2/6
f 520/4/6 530/4/6 535/4/6
f 516/3/6 520/3/6 535/3/6
f 530/4/6 531/4/6 535/4/6
f 531/4/6 521/4/6 536/4/6
f 535/4/6 531/4/6 536/4/6
f 521/3/6 532/3/6 536/3/6
f 536/3/6 532/3/6 537/3/6
f 532/2/6 533/2/6 538/2/6
f 537/3/6 532/3/6 538/3/6
f 538/2/6 533/2/6 539/2/6
f 536/3/6 537/3/6 540/3/6
f 535/3/6 536/3/6 540/3/6
f 537/2/6 538/2/6 541/2/6
f 540/3/6 537/3/6 541/3/6
f 541/2/6 538/2/6 542/2/6
f 535/3/6 540/3/6 543/3/6
f 540/2/6 541/2/6 544/2/6
f 543/3/6 540/3/6 544/3/6
f 544/2/6 541/2/6 545/2/6
f 535/3/6 543/3/6 546/3/6
f 543/2/6 544/2/6 547/2/6
f 546/3/6 543/3/6 547/3/6
f 547/2/6 544/2/6 548/2/6
f 535/3/6 546/3/6 549/3/6
f 546/2/6 547/2/6 550/2/6
f 549/3/6 546/3/6 550/3/6
f 550/2/6 547/2/6 551/2/6
f 535/3/6 549/3/6 552/3/6
f 549/2/6 550/2/6 553/2/6
f 552/3/6 549/3/6 553/3/6
f 553/2/6 550/2/6 554/2/6
f 535/3/6 552/3/6 555/3/6
f 552/2/6 553/2/6 556/2/6
f 555/3/6 552/3/6 556/3/6
f 556/2/6 553/2/6 557/2/6
f 535/3/6 555/3/6 558/3/6
f 555/2/6 556/2/6 559/2/6
f 558/3/6 555/3/6 559/3/6
f 559/2/6 556/2/6 560/2/6
f 535/3/6 558/3/6 561/3/6
f 558/2/6 559/2/6 562/2/6
f 561/3/6 558/3/6 562/3/6
f 562/2/6 559/2/6 563/2/6
f 512/3/6 514/3/6 564/3/6
f 514/4/6 516/4/6 564/4/6
f 516/3/6 535/3/6 565/3/6
f 564/4/6 516/4/6 565/4/6
f 535/3/6 561/3/6 565/3/6
f 565/3/6 561/3/6 566/3/6
f 561/2/6 562/2/6 567/2/6
f 566/3/6 561/3/6 567/3/6
f 567/2/6 562/2/6 568/2/6
f 565/3/6 566/3/6 569/3/6
f 564/3/6 565/3/6 569/3/6
f 566/2/6 567/2/6 570/2/6
f 569/3/6 566/3/6 570/3/6
f 570/2/6 567/2/6 571/2/6
f 510/2/6 512/2/6 572/2/6
f 512/3/6 564/3/6 572/3/6
f 564/3/6 569/3/6 572/3/6
f 569/2/6 570/2/6 573/2/6
f 572/3/6 569/3/6 573/3/6
f 510/2/6 572/2/6 574/2/6
f 572/2/6 573/2/6 574/2/6
f 573/2/6 570/2/6 575/2/6
f 574/2/6 573/2/6 575/2/6
