# MagicaVoxel @ ephtracy

# material
mtllib S_Stairs_Corner_Inner.mtl
usemtl palette

# normals
vn -1 0 0
vn 1 0 0
vn 0 0 1
vn 0 0 -1
vn 0 -1 0
vn 0 1 0

# texcoords
vt 0.916016 0.5
vt 0.958984 0.5
vt 0.962891 0.5

# verts
v -12.5 0 12.5
v -12.5 0 11.5
v -12.5 0 10.5
v -12.5 0 9.5
v -12.5 0 -9.5
v -12.5 0 -10.5
v -12.5 0 -11.5
v -12.5 0 -12.5
v -12.5 20 12.5
v -12.5 20 11.5
v -12.5 20 10.5
v -12.5 20 9.5
v -12.5 20 -9.5
v -12.5 20 -10.5
v -12.5 20 -11.5
v -12.5 20 -12.5
v -7.5 15 12.5
v -7.5 15 11.5
v -7.5 15 10.5
v -7.5 15 9.5
v -7.5 15 -7.5
v -7.5 20 12.5
v -7.5 20 11.5
v -7.5 20 10.5
v -7.5 20 9.5
v -7.5 20 -7.5
v -2.5 10 12.5
v -2.5 10 11.5
v -2.5 10 10.5
v -2.5 10 9.5
v -2.5 10 -2.5
v -2.5 15 12.5
v -2.5 15 11.5
v -2.5 15 10.5
v -2.5 15 9.5
v -2.5 15 -2.5
v 2.5 5 12.5
v 2.5 5 11.5
v 2.5 5 10.5
v 2.5 5 9.5
v 2.5 5 2.5
v 2.5 10 12.5
v 2.5 10 11.5
v 2.5 10 10.5
v 2.5 10 9.5
v 2.5 10 2.5
v 7.5 0 12.5
v 7.5 0 11.5
v 7.5 0 10.5
v 7.5 0 9.5
v 7.5 0 7.5
v 7.5 5 12.5
v 7.5 5 11.5
v 7.5 5 10.5
v 7.5 5 9.5
v 7.5 5 7.5
v 12.5 0 7.5
v 12.5 0 -12.5
v 12.5 1 6.5
v 12.5 1 -11.5
v 12.5 4 6.5
v 12.5 4 1.5
v 12.5 5 7.5
v 12.5 5 2.5
v 12.5 9 1.5
v 12.5 9 -3.5
v 12.5 10 2.5
v 12.5 10 -2.5
v 12.5 14 -3.5
v 12.5 14 -8.5
v 12.5 15 -2.5
v 12.5 15 -7.5
v 12.5 19 -8.5
v 12.5 19 -11.5
v 12.5 20 -7.5
v 12.5 20 -12.5
v -12.5 0 12.5
v -12.5 20 12.5
v -11.5 1 12.5
v -11.5 19 12.5
v -8.5 14 12.5
v -8.5 19 12.5
v -7.5 15 12.5
v -7.5 20 12.5
v -3.5 9 12.5
v -3.5 14 12.5
v -2.5 10 12.5
v -2.5 15 12.5
v 1.5 4 12.5
v 1.5 9 12.5
v 2.5 5 12.5
v 2.5 10 12.5
v 6.5 1 12.5
v 6.5 4 12.5
v 7.5 0 12.5
v 7.5 5 12.5
v 7.5 0 7.5
v 7.5 5 7.5
v 9.5 0 7.5
v 9.5 5 7.5
v 10.5 0 7.5
v 10.5 5 7.5
v 11.5 0 7.5
v 11.5 5 7.5
v 12.5 0 7.5
v 12.5 5 7.5
v 2.5 5 2.5
v 2.5 10 2.5
v 9.5 5 2.5
v 9.5 10 2.5
v 10.5 5 2.5
v 10.5 10 2.5
v 11.5 5 2.5
v 11.5 10 2.5
v 12.5 5 2.5
v 12.5 10 2.5
v -2.5 10 -2.5
v -2.5 15 -2.5
v 9.5 10 -2.5
v 9.5 15 -2.5
v 10.5 10 -2.5
v 10.5 15 -2.5
v 11.5 10 -2.5
v 11.5 15 -2.5
v 12.5 10 -2.5
v 12.5 15 -2.5
v -7.5 15 -7.5
v -7.5 20 -7.5
v 9.5 15 -7.5
v 9.5 20 -7.5
v 10.5 15 -7.5
v 10.5 20 -7.5
v 11.5 15 -7.5
v 11.5 20 -7.5
v 12.5 15 -7.5
v 12.5 20 -7.5
v -12.5 0 -12.5
v -12.5 20 -12.5
v -11.5 0 -12.5
v -11.5 20 -12.5
v -10.5 0 -12.5
v -10.5 20 -12.5
v -9.5 0 -12.5
v -9.5 20 -12.5
v 9.5 0 -12.5
v 9.5 20 -12.5
v 10.5 0 -12.5
v 10.5 20 -12.5
v 11.5 0 -12.5
v 11.5 20 -12.5
v 12.5 0 -12.5
v 12.5 20 -12.5
v -12.5 0 12.5
v 7.5 0 12.5
v -12.5 0 11.5
v 7.5 0 11.5
v -12.5 0 10.5
v 7.5 0 10.5
v -12.5 0 9.5
v 7.5 0 9.5
v 7.5 0 7.5
v 9.5 0 7.5
v 10.5 0 7.5
v 11.5 0 7.5
v 12.5 0 7.5
v -12.5 0 -9.5
v -9.5 0 -9.5
v -12.5 0 -10.5
v -10.5 0 -10.5
v -12.5 0 -11.5
v -11.5 0 -11.5
v -12.5 0 -12.5
v -11.5 0 -12.5
v -10.5 0 -12.5
v -9.5 0 -12.5
v 9.5 0 -12.5
v 10.5 0 -12.5
v 11.5 0 -12.5
v 12.5 0 -12.5
v 2.5 5 12.5
v 7.5 5 12.5
v 2.5 5 11.5
v 7.5 5 11.5
v 2.5 5 10.5
v 7.5 5 10.5
v 2.5 5 9.5
v 7.5 5 9.5
v 7.5 5 7.5
v 9.5 5 7.5
v 10.5 5 7.5
v 11.5 5 7.5
v 12.5 5 7.5
v 2.5 5 2.5
v 9.5 5 2.5
v 10.5 5 2.5
v 11.5 5 2.5
v 12.5 5 2.5
v -2.5 10 12.5
v 2.5 10 12.5
v -2.5 10 11.5
v 2.5 10 11.5
v -2.5 10 10.5
v 2.5 10 10.5
v -2.5 10 9.5
v 2.5 10 9.5
v 2.5 10 2.5
v 9.5 10 2.5
v 10.5 10 2.5
v 11.5 10 2.5
v 12.5 10 2.5
v -2.5 10 -2.5
v 9.5 10 -2.5
v 10.5 10 -2.5
v 11.5 10 -2.5
v 12.5 10 -2.5
v -7.5 15 12.5
v -2.5 15 12.5
v -7.5 15 11.5
v -2.5 15 11.5
v -7.5 15 10.5
v -2.5 15 10.5
v -7.5 15 9.5
v -2.5 15 9.5
v -2.5 15 -2.5
v 9.5 15 -2.5
v 10.5 15 -2.5
v 11.5 15 -2.5
v 12.5 15 -2.5
v -7.5 15 -7.5
v 9.5 15 -7.5
v 10.5 15 -7.5
v 11.5 15 -7.5
v 12.5 15 -7.5
v -12.5 20 12.5
v -7.5 20 12.5
v -12.5 20 11.5
v -7.5 20 11.5
v -12.5 20 10.5
v -7.5 20 10.5
v -12.5 20 9.5
v -7.5 20 9.5
v -7.5 20 -7.5
v 9.5 20 -7.5
v 10.5 20 -7.5
v 11.5 20 -7.5
v 12.5 20 -7.5
v -12.5 20 -9.5
v -9.5 20 -9.5
v -12.5 20 -10.5
v -10.5 20 -10.5
v -12.5 20 -11.5
v -11.5 20 -11.5
v -12.5 20 -12.5
v -11.5 20 -12.5
v -10.5 20 -12.5
v -9.5 20 -12.5
v 9.5 20 -12.5
v 10.5 20 -12.5
v 11.5 20 -12.5
v 12.5 20 -12.5

# faces
f 9/1/1 2/1/1 1/1/1
f 10/3/1 3/3/1 2/3/1
f 10/1/1 2/1/1 9/1/1
f 11/1/1 4/1/1 3/1/1
f 11/3/1 3/3/1 10/3/1
f 12/3/1 5/3/1 4/3/1
f 12/1/1 4/1/1 11/1/1
f 13/1/1 6/1/1 5/1/1
f 13/3/1 5/3/1 12/3/1
f 14/3/1 7/3/1 6/3/1
f 14/1/1 6/1/1 13/1/1
f 15/1/1 8/1/1 7/1/1
f 15/3/1 7/3/1 14/3/1
f 16/1/1 8/1/1 15/1/1
f 17/1/2 18/1/2 22/1/2
f 18/3/2 19/3/2 23/3/2
f 22/1/2 18/1/2 23/1/2
f 19/1/2 20/1/2 24/1/2
f 23/3/2 19/3/2 24/3/2
f 20/3/2 21/3/2 25/3/2
f 24/1/2 20/1/2 25/1/2
f 25/3/2 21/3/2 26/3/2
f 27/1/2 28/1/2 32/1/2
f 28/3/2 29/3/2 33/3/2
f 32/1/2 28/1/2 33/1/2
f 29/1/2 30/1/2 34/1/2
f 33/3/2 29/3/2 34/3/2
f 30/3/2 31/3/2 35/3/2
f 34/1/2 30/1/2 35/1/2
f 35/3/2 31/3/2 36/3/2
f 37/1/2 38/1/2 42/1/2
f 38/3/2 39/3/2 43/3/2
f 42/1/2 38/1/2 43/1/2
f 39/1/2 40/1/2 44/1/2
f 43/3/2 39/3/2 44/3/2
f 40/3/2 41/3/2 45/3/2
f 44/1/2 40/1/2 45/1/2
f 45/3/2 41/3/2 46/3/2
f 47/1/2 48/1/2 52/1/2
f 48/3/2 49/3/2 53/3/2
f 52/1/2 48/1/2 53/1/2
f 49/1/2 50/1/2 54/1/2
f 53/3/2 49/3/2 54/3/2
f 50/3/2 51/3/2 55/3/2
f 54/1/2 50/1/2 55/1/2
f 55/3/2 51/3/2 56/3/2
f 57/1/2 58/1/2 59/1/2
f 59/1/2 58/1/2 60/1/2
f 57/1/2 59/1/2 61/1/2
f 59/2/2 60/2/2 61/2/2
f 61/2/2 60/2/2 62/2/2
f 57/1/2 61/1/2 63/1/2
f 61/1/2 62/1/2 63/1/2
f 63/1/2 62/1/2 64/1/2
f 62/2/2 60/2/2 65/2/2
f 64/1/2 62/1/2 65/1/2
f 65/2/2 60/2/2 66/2/2
f 64/1/2 65/1/2 67/1/2
f 65/1/2 66/1/2 67/1/2
f 67/1/2 66/1/2 68/1/2
f 66/2/2 60/2/2 69/2/2
f 68/1/2 66/1/2 69/1/2
f 69/2/2 60/2/2 70/2/2
f 68/1/2 69/1/2 71/1/2
f 69/1/2 70/1/2 71/1/2
f 71/1/2 70/1/2 72/1/2
f 70/2/2 60/2/2 73/2/2
f 72/1/2 70/1/2 73/1/2
f 60/1/2 58/1/2 74/1/2
f 73/2/2 60/2/2 74/2/2
f 72/1/2 73/1/2 75/1/2
f 73/1/2 74/1/2 75/1/2
f 74/1/2 58/1/2 76/1/2
f 75/1/2 74/1/2 76/1/2
f 79/1/3 78/1/3 77/1/3
f 80/1/3 78/1/3 79/1/3
f 81/2/3 80/2/3 79/2/3
f 82/1/3 78/1/3 80/1/3
f 82/2/3 80/2/3 81/2/3
f 83/1/3 82/1/3 81/1/3
f 84/1/3 78/1/3 82/1/3
f 84/1/3 82/1/3 83/1/3
f 85/2/3 81/2/3 79/2/3
f 86/1/3 83/1/3 81/1/3
f 86/2/3 81/2/3 85/2/3
f 87/1/3 86/1/3 85/1/3
f 88/1/3 83/1/3 86/1/3
f 88/1/3 86/1/3 87/1/3
f 89/2/3 85/2/3 79/2/3
f 90/1/3 87/1/3 85/1/3
f 90/2/3 85/2/3 89/2/3
f 91/1/3 90/1/3 89/1/3
f 92/1/3 87/1/3 90/1/3
f 92/1/3 90/1/3 91/1/3
f 93/1/3 79/1/3 77/1/3
f 93/2/3 89/2/3 79/2/3
f 94/1/3 91/1/3 89/1/3
f 94/2/3 89/2/3 93/2/3
f 95/1/3 93/1/3 77/1/3
f 95/1/3 94/1/3 93/1/3
f 96/1/3 91/1/3 94/1/3
f 96/1/3 94/1/3 95/1/3
f 99/3/3 98/3/3 97/3/3
f 100/3/3 98/3/3 99/3/3
f 101/1/3 100/1/3 99/1/3
f 102/1/3 100/1/3 101/1/3
f 103/3/3 102/3/3 101/3/3
f 104/3/3 102/3/3 103/3/3
f 105/1/3 104/1/3 103/1/3
f 106/1/3 104/1/3 105/1/3
f 109/3/3 108/3/3 107/3/3
f 110/3/3 108/3/3 109/3/3
f 111/1/3 110/1/3 109/1/3
f 112/1/3 110/1/3 111/1/3
f 113/3/3 112/3/3 111/3/3
f 114/3/3 112/3/3 113/3/3
f 115/1/3 114/1/3 113/1/3
f 116/1/3 114/1/3 115/1/3
f 119/3/3 118/3/3 117/3/3
f 120/3/3 118/3/3 119/3/3
f 121/1/3 120/1/3 119/1/3
f 122/1/3 120/1/3 121/1/3
f 123/3/3 122/3/3 121/3/3
f 124/3/3 122/3/3 123/3/3
f 125/1/3 124/1/3 123/1/3
f 126/1/3 124/1/3 125/1/3
f 129/3/3 128/3/3 127/3/3
f 130/3/3 128/3/3 129/3/3
f 131/1/3 130/1/3 129/1/3
f 132/1/3 130/1/3 131/1/3
f 133/3/3 132/3/3 131/3/3
f 134/3/3 132/3/3 133/3/3
f 135/1/3 134/1/3 133/1/3
f 136/1/3 134/1/3 135/1/3
f 137/1/4 138/1/4 139/1/4
f 139/1/4 138/1/4 140/1/4
f 139/3/4 140/3/4 141/3/4
f 141/3/4 140/3/4 142/3/4
f 141/1/4 142/1/4 143/1/4
f 143/1/4 142/1/4 144/1/4
f 143/3/4 144/3/4 145/3/4
f 145/3/4 144/3/4 146/3/4
f 145/1/4 146/1/4 147/1/4
f 147/1/4 146/1/4 148/1/4
f 147/3/4 148/3/4 149/3/4
f 149/3/4 148/3/4 150/3/4
f 149/1/4 150/1/4 151/1/4
f 151/1/4 150/1/4 152/1/4
f 155/1/5 154/1/5 153/1/5
f 156/1/5 154/1/5 155/1/5
f 157/3/5 156/3/5 155/3/5
f 158/3/5 156/3/5 157/3/5
f 159/1/5 158/1/5 157/1/5
f 160/1/5 158/1/5 159/1/5
f 161/3/5 160/3/5 159/3/5
f 166/3/5 161/3/5 159/3/5
f 166/3/5 162/3/5 161/3/5
f 167/3/5 162/3/5 166/3/5
f 168/1/5 167/1/5 166/1/5
f 169/1/5 167/1/5 168/1/5
f 170/3/5 169/3/5 168/3/5
f 171/3/5 169/3/5 170/3/5
f 172/1/5 171/1/5 170/1/5
f 173/3/5 169/3/5 171/3/5
f 173/1/5 171/1/5 172/1/5
f 174/1/5 167/1/5 169/1/5
f 174/3/5 169/3/5 173/3/5
f 175/3/5 162/3/5 167/3/5
f 175/1/5 167/1/5 174/1/5
f 176/1/5 163/1/5 162/1/5
f 176/3/5 162/3/5 175/3/5
f 177/3/5 164/3/5 163/3/5
f 177/1/5 163/1/5 176/1/5
f 178/1/5 165/1/5 164/1/5
f 178/3/5 164/3/5 177/3/5
f 179/1/5 165/1/5 178/1/5
f 180/1/6 181/1/6 182/1/6
f 182/1/6 181/1/6 183/1/6
f 182/3/6 183/3/6 184/3/6
f 184/3/6 183/3/6 185/3/6
f 184/1/6 185/1/6 186/1/6
f 186/1/6 185/1/6 187/1/6
f 186/3/6 187/3/6 188/3/6
f 186/3/6 188/3/6 193/3/6
f 188/3/6 189/3/6 193/3/6
f 189/1/6 190/1/6 194/1/6
f 193/3/6 189/3/6 194/3/6
f 190/3/6 191/3/6 195/3/6
f 194/1/6 190/1/6 195/1/6
f 191/1/6 192/1/6 196/1/6
f 195/3/6 191/3/6 196/3/6
f 196/1/6 192/1/6 197/1/6
f 198/1/6 199/1/6 200/1/6
f 200/1/6 199/1/6 201/1/6
f 200/3/6 201/3/6 202/3/6
f 202/3/6 201/3/6 203/3/6
f 202/1/6 203/1/6 204/1/6
f 204/1/6 203/1/6 205/1/6
f 204/3/6 205/3/6 206/3/6
f 204/3/6 206/3/6 211/3/6
f 206/3/6 207/3/6 211/3/6
f 207/1/6 208/1/6 212/1/6
f 211/3/6 207/3/6 212/3/6
f 208/3/6 209/3/6 213/3/6
f 212/1/6 208/1/6 213/1/6
f 209/1/6 210/1/6 214/1/6
f 213/3/6 209/3/6 214/3/6
f 214/1/6 210/1/6 215/1/6
f 216/1/6 217/1/6 218/1/6
f 218/1/6 217/1/6 219/1/6
f 218/3/6 219/3/6 220/3/6
f 220/3/6 219/3/6 221/3/6
f 220/1/6 221/1/6 222/1/6
f 222/1/6 221/1/6 223/1/6
f 222/3/6 223/3/6 224/3/6
f 222/3/6 224/3/6 229/3/6
f 224/3/6 225/3/6 229/3/6
f 225/1/6 226/1/6 230/1/6
f 229/3/6 225/3/6 230/3/6
f 226/3/6 227/3/6 231/3/6
f 230/1/6 226/1/6 231/1/6
f 227/1/6 228/1/6 232/1/6
f 231/3/6 227/3/6 232/3/6
f 232/1/6 228/1/6 233/1/6
f 234/1/6 235/1/6 236/1/6
f 236/1/6 235/1/6 237/1/6
f 236/3/6 237/3/6 238/3/6
f 238/3/6 237/3/6 239/3/6
f 238/1/6 239/1/6 240/1/6
f 240/1/6 239/1/6 241/1/6
f 240/3/6 241/3/6 242/3/6
f 240/3/6 242/3/6 247/3/6
f 242/3/6 243/3/6 247/3/6
f 247/3/6 243/3/6 248/3/6
f 247/1/6 248/1/6 249/1/6
f 249/1/6 248/1/6 250/1/6
f 249/3/6 250/3/6 251/3/6
f 251/3/6 250/3/6 252/3/6
f 251/1/6 252/1/6 253/1/6
f 252/3/6 250/3/6 254/3/6
f 253/1/6 252/1/6 254/1/6
f 250/1/6 248/1/6 255/1/6
f 254/3/6 250/3/6 255/3/6
f 248/3/6 243/3/6 256/3/6
f 255/1/6 248/1/6 256/1/6
f 243/1/6 244/1/6 257/1/6
f 256/3/6 243/3/6 257/3/6
f 244/3/6 245/3/6 258/3/6
f 257/1/6 244/1/6 258/1/6
f 245/1/6 246/1/6 259/1/6
f 258/3/6 245/3/6 259/3/6
f 259/1/6 246/1/6 260/1/6
