# MagicaVoxel @ ephtracy

# material
mtllib S_StonePlate_Pink_i.mtl
usemtl palette

# normals
vn -1 0 0
vn 1 0 0
vn 0 0 1
vn 0 0 -1
vn 0 -1 0
vn 0 1 0

# texcoords
vt 0.892578 0.5
vt 0.958984 0.5
vt 0.962891 0.5
vt 0.966797 0.5

# verts
v -12.5 0 12.5
v -12.5 0 -12.5
v -12.5 1 12.5
v -12.5 1 -12.5
v 12.5 0 12.5
v 12.5 0 -12.5
v 12.5 1 12.5
v 12.5 1 -12.5
v -12.5 0 12.5
v -12.5 1 12.5
v -0.5 0 12.5
v -0.5 1 12.5
v 0.5 0 12.5
v 0.5 1 12.5
v 12.5 0 12.5
v 12.5 1 12.5
v -12.5 0 -12.5
v -12.5 1 -12.5
v 12.5 0 -12.5
v 12.5 1 -12.5
v -12.5 0 12.5
v -0.5 0 12.5
v 0.5 0 12.5
v 12.5 0 12.5
v -11.5 0 11.5
v -0.5 0 11.5
v 0.5 0 11.5
v 11.5 0 11.5
v -10.5 0 10.5
v -0.5 0 10.5
v 0.5 0 10.5
v 10.5 0 10.5
v -9.5 0 9.5
v -0.5 0 9.5
v 0.5 0 9.5
v 9.5 0 9.5
v -2.5 0 2.5
v -0.5 0 2.5
v 0.5 0 2.5
v 2.5 0 2.5
v -1.5 0 1.5
v -0.5 0 1.5
v 0.5 0 1.5
v 1.5 0 1.5
v -1.5 0 -1.5
v 1.5 0 -1.5
v -2.5 0 -2.5
v 2.5 0 -2.5
v -9.5 0 -9.5
v 9.5 0 -9.5
v -10.5 0 -10.5
v 10.5 0 -10.5
v -11.5 0 -11.5
v 11.5 0 -11.5
v -12.5 0 -12.5
v 12.5 0 -12.5
v -12.5 1 12.5
v -0.5 1 12.5
v 0.5 1 12.5
v 12.5 1 12.5
v -11.5 1 11.5
v -0.5 1 11.5
v 0.5 1 11.5
v 11.5 1 11.5
v -10.5 1 10.5
v -0.5 1 10.5
v 0.5 1 10.5
v 10.5 1 10.5
v -9.5 1 9.5
v -0.5 1 9.5
v 0.5 1 9.5
v 9.5 1 9.5
v -2.5 1 2.5
v -0.5 1 2.5
v 0.5 1 2.5
v 2.5 1 2.5
v -1.5 1 1.5
v -0.5 1 1.5
v 0.5 1 1.5
v 1.5 1 1.5
v -1.5 1 -1.5
v 1.5 1 -1.5
v -2.5 1 -2.5
v 2.5 1 -2.5
v -9.5 1 -9.5
v 9.5 1 -9.5
v -10.5 1 -10.5
v 10.5 1 -10.5
v -11.5 1 -11.5
v 11.5 1 -11.5
v -12.5 1 -12.5
v 12.5 1 -12.5

# faces
f 3/2/1 2/2/1 1/2/1
f 4/2/1 2/2/1 3/2/1
f 5/2/2 6/2/2 7/2/2
f 7/2/2 6/2/2 8/2/2
f 11/2/3 10/2/3 9/2/3
f 12/2/3 10/2/3 11/2/3
f 13/1/3 12/1/3 11/1/3
f 14/1/3 12/1/3 13/1/3
f 15/2/3 14/2/3 13/2/3
f 16/2/3 14/2/3 15/2/3
f 17/2/4 18/2/4 19/2/4
f 19/2/4 18/2/4 20/2/4
f 25/2/5 22/2/5 21/2/5
f 26/1/5 23/1/5 22/1/5
f 26/2/5 22/2/5 25/2/5
f 27/2/5 24/2/5 23/2/5
f 27/1/5 23/1/5 26/1/5
f 28/2/5 24/2/5 27/2/5
f 29/3/5 26/3/5 25/3/5
f 30/1/5 27/1/5 26/1/5
f 30/3/5 26/3/5 29/3/5
f 31/3/5 28/3/5 27/3/5
f 31/1/5 27/1/5 30/1/5
f 32/3/5 28/3/5 31/3/5
f 33/2/5 30/2/5 29/2/5
f 34/1/5 31/1/5 30/1/5
f 34/2/5 30/2/5 33/2/5
f 35/2/5 32/2/5 31/2/5
f 35/1/5 31/1/5 34/1/5
f 36/2/5 32/2/5 35/2/5
f 37/3/5 34/3/5 33/3/5
f 38/1/5 35/1/5 34/1/5
f 38/3/5 34/3/5 37/3/5
f 39/3/5 36/3/5 35/3/5
f 39/1/5 35/1/5 38/1/5
f 40/3/5 36/3/5 39/3/5
f 41/4/5 38/4/5 37/4/5
f 42/1/5 39/1/5 38/1/5
f 42/4/5 38/4/5 41/4/5
f 43/4/5 40/4/5 39/4/5
f 43/1/5 39/1/5 42/1/5
f 44/4/5 40/4/5 43/4/5
f 45/4/5 41/4/5 37/4/5
f 45/1/5 42/1/5 41/1/5
f 45/1/5 44/1/5 43/1/5
f 45/1/5 43/1/5 42/1/5
f 46/4/5 40/4/5 44/4/5
f 46/1/5 44/1/5 45/1/5
f 47/3/5 37/3/5 33/3/5
f 47/4/5 45/4/5 37/4/5
f 47/4/5 46/4/5 45/4/5
f 48/4/5 40/4/5 46/4/5
f 48/4/5 46/4/5 47/4/5
f 48/3/5 36/3/5 40/3/5
f 49/2/5 33/2/5 29/2/5
f 49/3/5 47/3/5 33/3/5
f 49/3/5 48/3/5 47/3/5
f 50/3/5 36/3/5 48/3/5
f 50/3/5 48/3/5 49/3/5
f 50/2/5 32/2/5 36/2/5
f 51/3/5 29/3/5 25/3/5
f 51/2/5 49/2/5 29/2/5
f 51/2/5 50/2/5 49/2/5
f 52/2/5 32/2/5 50/2/5
f 52/2/5 50/2/5 51/2/5
f 52/3/5 28/3/5 32/3/5
f 53/2/5 25/2/5 21/2/5
f 53/3/5 51/3/5 25/3/5
f 53/3/5 52/3/5 51/3/5
f 54/2/5 24/2/5 28/2/5
f 54/3/5 52/3/5 53/3/5
f 54/3/5 28/3/5 52/3/5
f 55/2/5 53/2/5 21/2/5
f 55/2/5 54/2/5 53/2/5
f 56/2/5 24/2/5 54/2/5
f 56/2/5 54/2/5 55/2/5
f 57/2/6 58/2/6 61/2/6
f 58/1/6 59/1/6 62/1/6
f 61/2/6 58/2/6 62/2/6
f 59/2/6 60/2/6 63/2/6
f 62/1/6 59/1/6 63/1/6
f 63/2/6 60/2/6 64/2/6
f 61/3/6 62/3/6 65/3/6
f 62/1/6 63/1/6 66/1/6
f 65/3/6 62/3/6 66/3/6
f 63/3/6 64/3/6 67/3/6
f 66/1/6 63/1/6 67/1/6
f 67/3/6 64/3/6 68/3/6
f 65/2/6 66/2/6 69/2/6
f 66/1/6 67/1/6 70/1/6
f 69/2/6 66/2/6 70/2/6
f 67/2/6 68/2/6 71/2/6
f 70/1/6 67/1/6 71/1/6
f 71/2/6 68/2/6 72/2/6
f 69/3/6 70/3/6 73/3/6
f 70/1/6 71/1/6 74/1/6
f 73/3/6 70/3/6 74/3/6
f 71/3/6 72/3/6 75/3/6
f 74/1/6 71/1/6 75/1/6
f 75/3/6 72/3/6 76/3/6
f 73/4/6 74/4/6 77/4/6
f 74/1/6 75/1/6 78/1/6
f 77/4/6 74/4/6 78/4/6
f 75/4/6 76/4/6 79/4/6
f 78/1/6 75/1/6 79/1/6
f 79/4/6 76/4/6 80/4/6
f 73/4/6 77/4/6 81/4/6
f 77/1/6 78/1/6 81/1/6
f 79/1/6 80/1/6 81/1/6
f 78/1/6 79/1/6 81/1/6
f 80/4/6 76/4/6 82/4/6
f 81/1/6 80/1/6 82/1/6
f 69/3/6 73/3/6 83/3/6
f 73/4/6 81/4/6 83/4/6
f 81/4/6 82/4/6 83/4/6
f 82/4/6 76/4/6 84/4/6
f 83/4/6 82/4/6 84/4/6
f 76/3/6 72/3/6 84/3/6
f 65/2/6 69/2/6 85/2/6
f 69/3/6 83/3/6 85/3/6
f 83/3/6 84/3/6 85/3/6
f 84/3/6 72/3/6 86/3/6
f 85/3/6 84/3/6 86/3/6
f 72/2/6 68/2/6 86/2/6
f 61/3/6 65/3/6 87/3/6
f 65/2/6 85/2/6 87/2/6
f 85/2/6 86/2/6 87/2/6
f 86/2/6 68/2/6 88/2/6
f 87/2/6 86/2/6 88/2/6
f 68/3/6 64/3/6 88/3/6
f 57/2/6 61/2/6 89/2/6
f 61/3/6 87/3/6 89/3/6
f 87/3/6 88/3/6 89/3/6
f 64/2/6 60/2/6 90/2/6
f 89/3/6 88/3/6 90/3/6
f 88/3/6 64/3/6 90/3/6
f 57/2/6 89/2/6 91/2/6
f 89/2/6 90/2/6 91/2/6
f 90/2/6 60/2/6 92/2/6
f 91/2/6 90/2/6 92/2/6
