# MagicaVoxel @ ephtracy

# material
mtllib S_StonePlate_Pink_T.mtl
usemtl palette

# normals
vn -1 0 0
vn 1 0 0
vn 0 0 1
vn 0 0 -1
vn 0 -1 0
vn 0 1 0

# texcoords
vt 0.892578 0.5
vt 0.958984 0.5
vt 0.962891 0.5
vt 0.966797 0.5

# verts
v -12.5 0 12.5
v -12.5 0 -12.5
v -12.5 1 12.5
v -12.5 1 -12.5
v 12.5 0 12.5
v 12.5 0 0.5
v 12.5 0 -0.5
v 12.5 0 -12.5
v 12.5 1 12.5
v 12.5 1 0.5
v 12.5 1 -0.5
v 12.5 1 -12.5
v -12.5 0 12.5
v -12.5 1 12.5
v -0.5 0 12.5
v -0.5 1 12.5
v 0.5 0 12.5
v 0.5 1 12.5
v 12.5 0 12.5
v 12.5 1 12.5
v -12.5 0 -12.5
v -12.5 1 -12.5
v -0.5 0 -12.5
v -0.5 1 -12.5
v 0.5 0 -12.5
v 0.5 1 -12.5
v 12.5 0 -12.5
v 12.5 1 -12.5
v -12.5 0 12.5
v -0.5 0 12.5
v 0.5 0 12.5
v 12.5 0 12.5
v -11.5 0 11.5
v -0.5 0 11.5
v 0.5 0 11.5
v 11.5 0 11.5
v -10.5 0 10.5
v -0.5 0 10.5
v 0.5 0 10.5
v 10.5 0 10.5
v -9.5 0 9.5
v -0.5 0 9.5
v 0.5 0 9.5
v 9.5 0 9.5
v -2.5 0 2.5
v -0.5 0 2.5
v 0.5 0 2.5
v 2.5 0 2.5
v -1.5 0 1.5
v -0.5 0 1.5
v 0.5 0 1.5
v 1.5 0 1.5
v 1.5 0 0.5
v 2.5 0 0.5
v 9.5 0 0.5
v 10.5 0 0.5
v 11.5 0 0.5
v 12.5 0 0.5
v 1.5 0 -0.5
v 2.5 0 -0.5
v 9.5 0 -0.5
v 10.5 0 -0.5
v 11.5 0 -0.5
v 12.5 0 -0.5
v -1.5 0 -1.5
v -0.5 0 -1.5
v 0.5 0 -1.5
v 1.5 0 -1.5
v -2.5 0 -2.5
v -0.5 0 -2.5
v 0.5 0 -2.5
v 2.5 0 -2.5
v -9.5 0 -9.5
v -0.5 0 -9.5
v 0.5 0 -9.5
v 9.5 0 -9.5
v -10.5 0 -10.5
v -0.5 0 -10.5
v 0.5 0 -10.5
v 10.5 0 -10.5
v -11.5 0 -11.5
v -0.5 0 -11.5
v 0.5 0 -11.5
v 11.5 0 -11.5
v -12.5 0 -12.5
v -0.5 0 -12.5
v 0.5 0 -12.5
v 12.5 0 -12.5
v -12.5 1 12.5
v -0.5 1 12.5
v 0.5 1 12.5
v 12.5 1 12.5
v -11.5 1 11.5
v -0.5 1 11.5
v 0.5 1 11.5
v 11.5 1 11.5
v -10.5 1 10.5
v -0.5 1 10.5
v 0.5 1 10.5
v 10.5 1 10.5
v -9.5 1 9.5
v -0.5 1 9.5
v 0.5 1 9.5
v 9.5 1 9.5
v -2.5 1 2.5
v -0.5 1 2.5
v 0.5 1 2.5
v 2.5 1 2.5
v -1.5 1 1.5
v -0.5 1 1.5
v 0.5 1 1.5
v 1.5 1 1.5
v 1.5 1 0.5
v 2.5 1 0.5
v 9.5 1 0.5
v 10.5 1 0.5
v 11.5 1 0.5
v 12.5 1 0.5
v 1.5 1 -0.5
v 2.5 1 -0.5
v 9.5 1 -0.5
v 10.5 1 -0.5
v 11.5 1 -0.5
v 12.5 1 -0.5
v -1.5 1 -1.5
v -0.5 1 -1.5
v 0.5 1 -1.5
v 1.5 1 -1.5
v -2.5 1 -2.5
v -0.5 1 -2.5
v 0.5 1 -2.5
v 2.5 1 -2.5
v -9.5 1 -9.5
v -0.5 1 -9.5
v 0.5 1 -9.5
v 9.5 1 -9.5
v -10.5 1 -10.5
v -0.5 1 -10.5
v 0.5 1 -10.5
v 10.5 1 -10.5
v -11.5 1 -11.5
v -0.5 1 -11.5
v 0.5 1 -11.5
v 11.5 1 -11.5
v -12.5 1 -12.5
v -0.5 1 -12.5
v 0.5 1 -12.5
v 12.5 1 -12.5

# faces
f 3/2/1 2/2/1 1/2/1
f 4/2/1 2/2/1 3/2/1
f 5/2/2 6/2/2 9/2/2
f 6/1/2 7/1/2 10/1/2
f 9/2/2 6/2/2 10/2/2
f 7/2/2 8/2/2 11/2/2
f 10/1/2 7/1/2 11/1/2
f 11/2/2 8/2/2 12/2/2
f 15/2/3 14/2/3 13/2/3
f 16/2/3 14/2/3 15/2/3
f 17/1/3 16/1/3 15/1/3
f 18/1/3 16/1/3 17/1/3
f 19/2/3 18/2/3 17/2/3
f 20/2/3 18/2/3 19/2/3
f 21/2/4 22/2/4 23/2/4
f 23/2/4 22/2/4 24/2/4
f 23/1/4 24/1/4 25/1/4
f 25/1/4 24/1/4 26/1/4
f 25/2/4 26/2/4 27/2/4
f 27/2/4 26/2/4 28/2/4
f 33/2/5 30/2/5 29/2/5
f 34/1/5 31/1/5 30/1/5
f 34/2/5 30/2/5 33/2/5
f 35/2/5 32/2/5 31/2/5
f 35/1/5 31/1/5 34/1/5
f 36/2/5 32/2/5 35/2/5
f 37/3/5 34/3/5 33/3/5
f 38/1/5 35/1/5 34/1/5
f 38/3/5 34/3/5 37/3/5
f 39/3/5 36/3/5 35/3/5
f 39/1/5 35/1/5 38/1/5
f 40/3/5 36/3/5 39/3/5
f 41/2/5 38/2/5 37/2/5
f 42/1/5 39/1/5 38/1/5
f 42/2/5 38/2/5 41/2/5
f 43/2/5 40/2/5 39/2/5
f 43/1/5 39/1/5 42/1/5
f 44/2/5 40/2/5 43/2/5
f 45/3/5 42/3/5 41/3/5
f 46/1/5 43/1/5 42/1/5
f 46/3/5 42/3/5 45/3/5
f 47/3/5 44/3/5 43/3/5
f 47/1/5 43/1/5 46/1/5
f 48/3/5 44/3/5 47/3/5
f 49/4/5 46/4/5 45/4/5
f 50/1/5 47/1/5 46/1/5
f 50/4/5 46/4/5 49/4/5
f 51/4/5 48/4/5 47/4/5
f 51/1/5 47/1/5 50/1/5
f 52/4/5 48/4/5 51/4/5
f 53/1/5 50/1/5 49/1/5
f 53/4/5 48/4/5 52/4/5
f 53/1/5 52/1/5 51/1/5
f 53/1/5 51/1/5 50/1/5
f 54/3/5 44/3/5 48/3/5
f 54/4/5 48/4/5 53/4/5
f 55/2/5 40/2/5 44/2/5
f 55/3/5 44/3/5 54/3/5
f 56/3/5 36/3/5 40/3/5
f 56/2/5 40/2/5 55/2/5
f 57/2/5 32/2/5 36/2/5
f 57/3/5 36/3/5 56/3/5
f 58/2/5 32/2/5 57/2/5
f 59/1/5 56/1/5 55/1/5
f 59/1/5 55/1/5 54/1/5
f 59/1/5 58/1/5 57/1/5
f 59/1/5 57/1/5 56/1/5
f 59/1/5 54/1/5 53/1/5
f 59/1/5 53/1/5 49/1/5
f 60/1/5 58/1/5 59/1/5
f 61/1/5 58/1/5 60/1/5
f 62/1/5 58/1/5 61/1/5
f 63/1/5 58/1/5 62/1/5
f 64/1/5 58/1/5 63/1/5
f 65/4/5 49/4/5 45/4/5
f 65/1/5 59/1/5 49/1/5
f 66/1/5 59/1/5 65/1/5
f 67/1/5 59/1/5 66/1/5
f 68/4/5 60/4/5 59/4/5
f 68/1/5 59/1/5 67/1/5
f 69/3/5 45/3/5 41/3/5
f 69/4/5 65/4/5 45/4/5
f 69/4/5 66/4/5 65/4/5
f 70/1/5 67/1/5 66/1/5
f 70/4/5 66/4/5 69/4/5
f 71/4/5 68/4/5 67/4/5
f 71/1/5 67/1/5 70/1/5
f 72/4/5 60/4/5 68/4/5
f 72/4/5 68/4/5 71/4/5
f 72/3/5 61/3/5 60/3/5
f 73/2/5 41/2/5 37/2/5
f 73/3/5 69/3/5 41/3/5
f 73/3/5 70/3/5 69/3/5
f 74/1/5 71/1/5 70/1/5
f 74/3/5 70/3/5 73/3/5
f 75/3/5 72/3/5 71/3/5
f 75/1/5 71/1/5 74/1/5
f 76/3/5 61/3/5 72/3/5
f 76/3/5 72/3/5 75/3/5
f 76/2/5 62/2/5 61/2/5
f 77/3/5 37/3/5 33/3/5
f 77/2/5 73/2/5 37/2/5
f 77/2/5 74/2/5 73/2/5
f 78/1/5 75/1/5 74/1/5
f 78/2/5 74/2/5 77/2/5
f 79/2/5 76/2/5 75/2/5
f 79/1/5 75/1/5 78/1/5
f 80/2/5 62/2/5 76/2/5
f 80/2/5 76/2/5 79/2/5
f 80/3/5 63/3/5 62/3/5
f 81/2/5 33/2/5 29/2/5
f 81/3/5 77/3/5 33/3/5
f 81/3/5 78/3/5 77/3/5
f 82/1/5 79/1/5 78/1/5
f 82/3/5 78/3/5 81/3/5
f 83/3/5 80/3/5 79/3/5
f 83/1/5 79/1/5 82/1/5
f 84/3/5 63/3/5 80/3/5
f 84/3/5 80/3/5 83/3/5
f 84/2/5 64/2/5 63/2/5
f 85/2/5 81/2/5 29/2/5
f 85/2/5 82/2/5 81/2/5
f 86/1/5 83/1/5 82/1/5
f 86/2/5 82/2/5 85/2/5
f 87/2/5 84/2/5 83/2/5
f 87/1/5 83/1/5 86/1/5
f 88/2/5 64/2/5 84/2/5
f 88/2/5 84/2/5 87/2/5
f 89/2/6 90/2/6 93/2/6
f 90/1/6 91/1/6 94/1/6
f 93/2/6 90/2/6 94/2/6
f 91/2/6 92/2/6 95/2/6
f 94/1/6 91/1/6 95/1/6
f 95/2/6 92/2/6 96/2/6
f 93/3/6 94/3/6 97/3/6
f 94/1/6 95/1/6 98/1/6
f 97/3/6 94/3/6 98/3/6
f 95/3/6 96/3/6 99/3/6
f 98/1/6 95/1/6 99/1/6
f 99/3/6 96/3/6 100/3/6
f 97/2/6 98/2/6 101/2/6
f 98/1/6 99/1/6 102/1/6
f 101/2/6 98/2/6 102/2/6
f 99/2/6 100/2/6 103/2/6
f 102/1/6 99/1/6 103/1/6
f 103/2/6 100/2/6 104/2/6
f 101/3/6 102/3/6 105/3/6
f 102/1/6 103/1/6 106/1/6
f 105/3/6 102/3/6 106/3/6
f 103/3/6 104/3/6 107/3/6
f 106/1/6 103/1/6 107/1/6
f 107/3/6 104/3/6 108/3/6
f 105/4/6 106/4/6 109/4/6
f 106/1/6 107/1/6 110/1/6
f 109/4/6 106/4/6 110/4/6
f 107/4/6 108/4/6 111/4/6
f 110/1/6 107/1/6 111/1/6
f 111/4/6 108/4/6 112/4/6
f 109/1/6 110/1/6 113/1/6
f 112/4/6 108/4/6 113/4/6
f 111/1/6 112/1/6 113/1/6
f 110/1/6 111/1/6 113/1/6
f 108/3/6 104/3/6 114/3/6
f 113/4/6 108/4/6 114/4/6
f 104/2/6 100/2/6 115/2/6
f 114/3/6 104/3/6 115/3/6
f 100/3/6 96/3/6 116/3/6
f 115/2/6 100/2/6 116/2/6
f 96/2/6 92/2/6 117/2/6
f 116/3/6 96/3/6 117/3/6
f 117/2/6 92/2/6 118/2/6
f 115/1/6 116/1/6 119/1/6
f 114/1/6 115/1/6 119/1/6
f 117/1/6 118/1/6 119/1/6
f 116/1/6 117/1/6 119/1/6
f 113/1/6 114/1/6 119/1/6
f 109/1/6 113/1/6 119/1/6
f 119/1/6 118/1/6 120/1/6
f 120/1/6 118/1/6 121/1/6
f 121/1/6 118/1/6 122/1/6
f 122/1/6 118/1/6 123/1/6
f 123/1/6 118/1/6 124/1/6
f 105/4/6 109/4/6 125/4/6
f 109/1/6 119/1/6 125/1/6
f 125/1/6 119/1/6 126/1/6
f 126/1/6 119/1/6 127/1/6
f 119/4/6 120/4/6 128/4/6
f 127/1/6 119/1/6 128/1/6
f 101/3/6 105/3/6 129/3/6
f 105/4/6 125/4/6 129/4/6
f 125/4/6 126/4/6 129/4/6
f 126/1/6 127/1/6 130/1/6
f 129/4/6 126/4/6 130/4/6
f 127/4/6 128/4/6 131/4/6
f 130/1/6 127/1/6 131/1/6
f 128/4/6 120/4/6 132/4/6
f 131/4/6 128/4/6 132/4/6
f 120/3/6 121/3/6 132/3/6
f 97/2/6 101/2/6 133/2/6
f 101/3/6 129/3/6 133/3/6
f 129/3/6 130/3/6 133/3/6
f 130/1/6 131/1/6 134/1/6
f 133/3/6 130/3/6 134/3/6
f 131/3/6 132/3/6 135/3/6
f 134/1/6 131/1/6 135/1/6
f 132/3/6 121/3/6 136/3/6
f 135/3/6 132/3/6 136/3/6
f 121/2/6 122/2/6 136/2/6
f 93/3/6 97/3/6 137/3/6
f 97/2/6 133/2/6 137/2/6
f 133/2/6 134/2/6 137/2/6
f 134/1/6 135/1/6 138/1/6
f 137/2/6 134/2/6 138/2/6
f 135/2/6 136/2/6 139/2/6
f 138/1/6 135/1/6 139/1/6
f 136/2/6 122/2/6 140/2/6
f 139/2/6 136/2/6 140/2/6
f 122/3/6 123/3/6 140/3/6
f 89/2/6 93/2/6 141/2/6
f 93/3/6 137/3/6 141/3/6
f 137/3/6 138/3/6 141/3/6
f 138/1/6 139/1/6 142/1/6
f 141/3/6 138/3/6 142/3/6
f 139/3/6 140/3/6 143/3/6
f 142/1/6 139/1/6 143/1/6
f 140/3/6 123/3/6 144/3/6
f 143/3/6 140/3/6 144/3/6
f 123/2/6 124/2/6 144/2/6
f 89/2/6 141/2/6 145/2/6
f 141/2/6 142/2/6 145/2/6
f 142/1/6 143/1/6 146/1/6
f 145/2/6 142/2/6 146/2/6
f 143/2/6 144/2/6 147/2/6
f 146/1/6 143/1/6 147/1/6
f 144/2/6 124/2/6 148/2/6
f 147/2/6 144/2/6 148/2/6
