# MagicaVoxel @ ephtracy

# material
mtllib S_StoneCube.mtl
usemtl palette

# normals
vn -1 0 0
vn 1 0 0
vn 0 0 1
vn 0 0 -1
vn 0 -1 0
vn 0 1 0

# texcoords
vt 0.916016 0.5
vt 0.958984 0.5
vt 0.962891 0.5
vt 0.966797 0.5

# verts
v -12.5 0 12.5
v -12.5 0 -12.5
v -12.5 1 11.5
v -12.5 1 -11.5
v -12.5 2 10.5
v -12.5 2 -10.5
v -12.5 3 9.5
v -12.5 3 -9.5
v -12.5 22 9.5
v -12.5 22 -9.5
v -12.5 23 10.5
v -12.5 23 -10.5
v -12.5 24 11.5
v -12.5 24 -11.5
v -12.5 25 12.5
v -12.5 25 -12.5
v 12.5 0 12.5
v 12.5 0 -12.5
v 12.5 1 11.5
v 12.5 1 -11.5
v 12.5 2 10.5
v 12.5 2 -10.5
v 12.5 3 9.5
v 12.5 3 -9.5
v 12.5 22 9.5
v 12.5 22 -9.5
v 12.5 23 10.5
v 12.5 23 -10.5
v 12.5 24 11.5
v 12.5 24 -11.5
v 12.5 25 12.5
v 12.5 25 -12.5
v -12.5 0 12.5
v -12.5 25 12.5
v -11.5 1 12.5
v -11.5 24 12.5
v -10.5 2 12.5
v -10.5 23 12.5
v -9.5 3 12.5
v -9.5 22 12.5
v 9.5 3 12.5
v 9.5 22 12.5
v 10.5 2 12.5
v 10.5 23 12.5
v 11.5 1 12.5
v 11.5 24 12.5
v 12.5 0 12.5
v 12.5 25 12.5
v -12.5 0 -12.5
v -12.5 25 -12.5
v -11.5 1 -12.5
v -11.5 24 -12.5
v -10.5 2 -12.5
v -10.5 23 -12.5
v -9.5 3 -12.5
v -9.5 22 -12.5
v 9.5 3 -12.5
v 9.5 22 -12.5
v 10.5 2 -12.5
v 10.5 23 -12.5
v 11.5 1 -12.5
v 11.5 24 -12.5
v 12.5 0 -12.5
v 12.5 25 -12.5
v -12.5 0 12.5
v 12.5 0 12.5
v -11.5 0 11.5
v 11.5 0 11.5
v -10.5 0 10.5
v 10.5 0 10.5
v -9.5 0 9.5
v 9.5 0 9.5
v -2.5 0 2.5
v 2.5 0 2.5
v -1.5 0 1.5
v 1.5 0 1.5
v -1.5 0 -1.5
v 1.5 0 -1.5
v -2.5 0 -2.5
v 2.5 0 -2.5
v -9.5 0 -9.5
v 9.5 0 -9.5
v -10.5 0 -10.5
v 10.5 0 -10.5
v -11.5 0 -11.5
v 11.5 0 -11.5
v -12.5 0 -12.5
v 12.5 0 -12.5
v -12.5 25 12.5
v 12.5 25 12.5
v -11.5 25 11.5
v 11.5 25 11.5
v -10.5 25 10.5
v 10.5 25 10.5
v -9.5 25 9.5
v 9.5 25 9.5
v -2.5 25 2.5
v 2.5 25 2.5
v -1.5 25 1.5
v 1.5 25 1.5
v -1.5 25 -1.5
v 1.5 25 -1.5
v -2.5 25 -2.5
v 2.5 25 -2.5
v -9.5 25 -9.5
v 9.5 25 -9.5
v -10.5 25 -10.5
v 10.5 25 -10.5
v -11.5 25 -11.5
v 11.5 25 -11.5
v -12.5 25 -12.5
v 12.5 25 -12.5

# faces
f 3/1/1 2/1/1 1/1/1
f 4/1/1 2/1/1 3/1/1
f 5/2/1 4/2/1 3/2/1
f 6/2/1 4/2/1 5/2/1
f 7/1/1 6/1/1 5/1/1
f 8/1/1 6/1/1 7/1/1
f 9/1/1 7/1/1 5/1/1
f 9/2/1 8/2/1 7/2/1
f 10/1/1 6/1/1 8/1/1
f 10/2/1 8/2/1 9/2/1
f 11/2/1 5/2/1 3/2/1
f 11/1/1 9/1/1 5/1/1
f 11/1/1 10/1/1 9/1/1
f 12/1/1 6/1/1 10/1/1
f 12/1/1 10/1/1 11/1/1
f 12/2/1 4/2/1 6/2/1
f 13/1/1 3/1/1 1/1/1
f 13/2/1 11/2/1 3/2/1
f 13/2/1 12/2/1 11/2/1
f 14/2/1 4/2/1 12/2/1
f 14/2/1 12/2/1 13/2/1
f 14/1/1 2/1/1 4/1/1
f 15/1/1 13/1/1 1/1/1
f 15/1/1 14/1/1 13/1/1
f 16/1/1 2/1/1 14/1/1
f 16/1/1 14/1/1 15/1/1
f 17/1/2 18/1/2 19/1/2
f 19/1/2 18/1/2 20/1/2
f 19/2/2 20/2/2 21/2/2
f 21/2/2 20/2/2 22/2/2
f 21/1/2 22/1/2 23/1/2
f 23/1/2 22/1/2 24/1/2
f 21/1/2 23/1/2 25/1/2
f 23/2/2 24/2/2 25/2/2
f 24/1/2 22/1/2 26/1/2
f 25/2/2 24/2/2 26/2/2
f 19/2/2 21/2/2 27/2/2
f 21/1/2 25/1/2 27/1/2
f 25/1/2 26/1/2 27/1/2
f 26/1/2 22/1/2 28/1/2
f 27/1/2 26/1/2 28/1/2
f 22/2/2 20/2/2 28/2/2
f 17/1/2 19/1/2 29/1/2
f 19/2/2 27/2/2 29/2/2
f 27/2/2 28/2/2 29/2/2
f 28/2/2 20/2/2 30/2/2
f 29/2/2 28/2/2 30/2/2
f 20/1/2 18/1/2 30/1/2
f 17/1/2 29/1/2 31/1/2
f 29/1/2 30/1/2 31/1/2
f 30/1/2 18/1/2 32/1/2
f 31/1/2 30/1/2 32/1/2
f 35/1/3 34/1/3 33/1/3
f 36/1/3 34/1/3 35/1/3
f 37/2/3 36/2/3 35/2/3
f 38/2/3 36/2/3 37/2/3
f 39/1/3 38/1/3 37/1/3
f 40/1/3 38/1/3 39/1/3
f 41/1/3 39/1/3 37/1/3
f 41/2/3 40/2/3 39/2/3
f 42/1/3 38/1/3 40/1/3
f 42/2/3 40/2/3 41/2/3
f 43/2/3 37/2/3 35/2/3
f 43/1/3 41/1/3 37/1/3
f 43/1/3 42/1/3 41/1/3
f 44/1/3 38/1/3 42/1/3
f 44/1/3 42/1/3 43/1/3
f 44/2/3 36/2/3 38/2/3
f 45/1/3 35/1/3 33/1/3
f 45/2/3 43/2/3 35/2/3
f 45/2/3 44/2/3 43/2/3
f 46/2/3 36/2/3 44/2/3
f 46/2/3 44/2/3 45/2/3
f 46/1/3 34/1/3 36/1/3
f 47/1/3 45/1/3 33/1/3
f 47/1/3 46/1/3 45/1/3
f 48/1/3 34/1/3 46/1/3
f 48/1/3 46/1/3 47/1/3
f 49/1/4 50/1/4 51/1/4
f 51/1/4 50/1/4 52/1/4
f 51/2/4 52/2/4 53/2/4
f 53/2/4 52/2/4 54/2/4
f 53/1/4 54/1/4 55/1/4
f 55/1/4 54/1/4 56/1/4
f 53/1/4 55/1/4 57/1/4
f 55/2/4 56/2/4 57/2/4
f 56/1/4 54/1/4 58/1/4
f 57/2/4 56/2/4 58/2/4
f 51/2/4 53/2/4 59/2/4
f 53/1/4 57/1/4 59/1/4
f 57/1/4 58/1/4 59/1/4
f 58/1/4 54/1/4 60/1/4
f 59/1/4 58/1/4 60/1/4
f 54/2/4 52/2/4 60/2/4
f 49/1/4 51/1/4 61/1/4
f 51/2/4 59/2/4 61/2/4
f 59/2/4 60/2/4 61/2/4
f 60/2/4 52/2/4 62/2/4
f 61/2/4 60/2/4 62/2/4
f 52/1/4 50/1/4 62/1/4
f 49/1/4 61/1/4 63/1/4
f 61/1/4 62/1/4 63/1/4
f 62/1/4 50/1/4 64/1/4
f 63/1/4 62/1/4 64/1/4
f 67/1/5 66/1/5 65/1/5
f 68/1/5 66/1/5 67/1/5
f 69/3/5 68/3/5 67/3/5
f 70/3/5 68/3/5 69/3/5
f 71/2/5 70/2/5 69/2/5
f 72/2/5 70/2/5 71/2/5
f 73/3/5 72/3/5 71/3/5
f 74/3/5 72/3/5 73/3/5
f 75/4/5 74/4/5 73/4/5
f 76/4/5 74/4/5 75/4/5
f 77/4/5 75/4/5 73/4/5
f 77/3/5 76/3/5 75/3/5
f 78/4/5 74/4/5 76/4/5
f 78/3/5 76/3/5 77/3/5
f 79/3/5 73/3/5 71/3/5
f 79/4/5 77/4/5 73/4/5
f 79/4/5 78/4/5 77/4/5
f 80/4/5 74/4/5 78/4/5
f 80/4/5 78/4/5 79/4/5
f 80/3/5 72/3/5 74/3/5
f 81/2/5 71/2/5 69/2/5
f 81/3/5 79/3/5 71/3/5
f 81/3/5 80/3/5 79/3/5
f 82/3/5 72/3/5 80/3/5
f 82/3/5 80/3/5 81/3/5
f 82/2/5 70/2/5 72/2/5
f 83/3/5 69/3/5 67/3/5
f 83/2/5 81/2/5 69/2/5
f 83/2/5 82/2/5 81/2/5
f 84/2/5 70/2/5 82/2/5
f 84/2/5 82/2/5 83/2/5
f 84/3/5 68/3/5 70/3/5
f 85/1/5 67/1/5 65/1/5
f 85/3/5 83/3/5 67/3/5
f 85/3/5 84/3/5 83/3/5
f 86/3/5 68/3/5 84/3/5
f 86/3/5 84/3/5 85/3/5
f 86/1/5 66/1/5 68/1/5
f 87/1/5 85/1/5 65/1/5
f 87/1/5 86/1/5 85/1/5
f 88/1/5 66/1/5 86/1/5
f 88/1/5 86/1/5 87/1/5
f 89/1/6 90/1/6 91/1/6
f 91/1/6 90/1/6 92/1/6
f 91/3/6 92/3/6 93/3/6
f 93/3/6 92/3/6 94/3/6
f 93/2/6 94/2/6 95/2/6
f 95/2/6 94/2/6 96/2/6
f 95/3/6 96/3/6 97/3/6
f 97/3/6 96/3/6 98/3/6
f 97/4/6 98/4/6 99/4/6
f 99/4/6 98/4/6 100/4/6
f 97/4/6 99/4/6 101/4/6
f 99/3/6 100/3/6 101/3/6
f 100/4/6 98/4/6 102/4/6
f 101/3/6 100/3/6 102/3/6
f 95/3/6 97/3/6 103/3/6
f 97/4/6 101/4/6 103/4/6
f 101/4/6 102/4/6 103/4/6
f 102/4/6 98/4/6 104/4/6
f 103/4/6 102/4/6 104/4/6
f 98/3/6 96/3/6 104/3/6
f 93/2/6 95/2/6 105/2/6
f 95/3/6 103/3/6 105/3/6
f 103/3/6 104/3/6 105/3/6
f 104/3/6 96/3/6 106/3/6
f 105/3/6 104/3/6 106/3/6
f 96/2/6 94/2/6 106/2/6
f 91/3/6 93/3/6 107/3/6
f 93/2/6 105/2/6 107/2/6
f 105/2/6 106/2/6 107/2/6
f 106/2/6 94/2/6 108/2/6
f 107/2/6 106/2/6 108/2/6
f 94/3/6 92/3/6 108/3/6
f 89/1/6 91/1/6 109/1/6
f 91/3/6 107/3/6 109/3/6
f 107/3/6 108/3/6 109/3/6
f 108/3/6 92/3/6 110/3/6
f 109/3/6 108/3/6 110/3/6
f 92/1/6 90/1/6 110/1/6
f 89/1/6 109/1/6 111/1/6
f 109/1/6 110/1/6 111/1/6
f 110/1/6 90/1/6 112/1/6
f 111/1/6 110/1/6 112/1/6
