# MagicaVoxel @ ephtracy

# material
mtllib S_StonePlate_Blue_X.mtl
usemtl palette

# normals
vn -1 0 0
vn 1 0 0
vn 0 0 1
vn 0 0 -1
vn 0 -1 0
vn 0 1 0

# texcoords
vt 0.755859 0.5
vt 0.958984 0.5
vt 0.962891 0.5
vt 0.966797 0.5

# verts
v -12.5 0 12.5
v -12.5 0 0.5
v -12.5 0 -0.5
v -12.5 0 -12.5
v -12.5 1 12.5
v -12.5 1 0.5
v -12.5 1 -0.5
v -12.5 1 -12.5
v 12.5 0 12.5
v 12.5 0 0.5
v 12.5 0 -0.5
v 12.5 0 -12.5
v 12.5 1 12.5
v 12.5 1 0.5
v 12.5 1 -0.5
v 12.5 1 -12.5
v -12.5 0 12.5
v -12.5 1 12.5
v -0.5 0 12.5
v -0.5 1 12.5
v 0.5 0 12.5
v 0.5 1 12.5
v 12.5 0 12.5
v 12.5 1 12.5
v -12.5 0 -12.5
v -12.5 1 -12.5
v -0.5 0 -12.5
v -0.5 1 -12.5
v 0.5 0 -12.5
v 0.5 1 -12.5
v 12.5 0 -12.5
v 12.5 1 -12.5
v -12.5 0 12.5
v -0.5 0 12.5
v 0.5 0 12.5
v 12.5 0 12.5
v -11.5 0 11.5
v -0.5 0 11.5
v 0.5 0 11.5
v 11.5 0 11.5
v -10.5 0 10.5
v -0.5 0 10.5
v 0.5 0 10.5
v 10.5 0 10.5
v -9.5 0 9.5
v -0.5 0 9.5
v 0.5 0 9.5
v 9.5 0 9.5
v -2.5 0 2.5
v -0.5 0 2.5
v 0.5 0 2.5
v 2.5 0 2.5
v -1.5 0 1.5
v -0.5 0 1.5
v 0.5 0 1.5
v 1.5 0 1.5
v -12.5 0 0.5
v -11.5 0 0.5
v -10.5 0 0.5
v -9.5 0 0.5
v -2.5 0 0.5
v -1.5 0 0.5
v 1.5 0 0.5
v 2.5 0 0.5
v 9.5 0 0.5
v 10.5 0 0.5
v 11.5 0 0.5
v 12.5 0 0.5
v -12.5 0 -0.5
v -11.5 0 -0.5
v -10.5 0 -0.5
v -9.5 0 -0.5
v -2.5 0 -0.5
v -1.5 0 -0.5
v 1.5 0 -0.5
v 2.5 0 -0.5
v 9.5 0 -0.5
v 10.5 0 -0.5
v 11.5 0 -0.5
v 12.5 0 -0.5
v -1.5 0 -1.5
v -0.5 0 -1.5
v 0.5 0 -1.5
v 1.5 0 -1.5
v -2.5 0 -2.5
v -0.5 0 -2.5
v 0.5 0 -2.5
v 2.5 0 -2.5
v -9.5 0 -9.5
v -0.5 0 -9.5
v 0.5 0 -9.5
v 9.5 0 -9.5
v -10.5 0 -10.5
v -0.5 0 -10.5
v 0.5 0 -10.5
v 10.5 0 -10.5
v -11.5 0 -11.5
v -0.5 0 -11.5
v 0.5 0 -11.5
v 11.5 0 -11.5
v -12.5 0 -12.5
v -0.5 0 -12.5
v 0.5 0 -12.5
v 12.5 0 -12.5
v -12.5 1 12.5
v -0.5 1 12.5
v 0.5 1 12.5
v 12.5 1 12.5
v -11.5 1 11.5
v -0.5 1 11.5
v 0.5 1 11.5
v 11.5 1 11.5
v -10.5 1 10.5
v -0.5 1 10.5
v 0.5 1 10.5
v 10.5 1 10.5
v -9.5 1 9.5
v -0.5 1 9.5
v 0.5 1 9.5
v 9.5 1 9.5
v -2.5 1 2.5
v -0.5 1 2.5
v 0.5 1 2.5
v 2.5 1 2.5
v -1.5 1 1.5
v -0.5 1 1.5
v 0.5 1 1.5
v 1.5 1 1.5
v -12.5 1 0.5
v -11.5 1 0.5
v -10.5 1 0.5
v -9.5 1 0.5
v -2.5 1 0.5
v -1.5 1 0.5
v 1.5 1 0.5
v 2.5 1 0.5
v 9.5 1 0.5
v 10.5 1 0.5
v 11.5 1 0.5
v 12.5 1 0.5
v -12.5 1 -0.5
v -11.5 1 -0.5
v -10.5 1 -0.5
v -9.5 1 -0.5
v -2.5 1 -0.5
v -1.5 1 -0.5
v 1.5 1 -0.5
v 2.5 1 -0.5
v 9.5 1 -0.5
v 10.5 1 -0.5
v 11.5 1 -0.5
v 12.5 1 -0.5
v -1.5 1 -1.5
v -0.5 1 -1.5
v 0.5 1 -1.5
v 1.5 1 -1.5
v -2.5 1 -2.5
v -0.5 1 -2.5
v 0.5 1 -2.5
v 2.5 1 -2.5
v -9.5 1 -9.5
v -0.5 1 -9.5
v 0.5 1 -9.5
v 9.5 1 -9.5
v -10.5 1 -10.5
v -0.5 1 -10.5
v 0.5 1 -10.5
v 10.5 1 -10.5
v -11.5 1 -11.5
v -0.5 1 -11.5
v 0.5 1 -11.5
v 11.5 1 -11.5
v -12.5 1 -12.5
v -0.5 1 -12.5
v 0.5 1 -12.5
v 12.5 1 -12.5

# faces
f 5/2/1 2/2/1 1/2/1
f 6/1/1 3/1/1 2/1/1
f 6/2/1 2/2/1 5/2/1
f 7/2/1 4/2/1 3/2/1
f 7/1/1 3/1/1 6/1/1
f 8/2/1 4/2/1 7/2/1
f 9/2/2 10/2/2 13/2/2
f 10/1/2 11/1/2 14/1/2
f 13/2/2 10/2/2 14/2/2
f 11/2/2 12/2/2 15/2/2
f 14/1/2 11/1/2 15/1/2
f 15/2/2 12/2/2 16/2/2
f 19/2/3 18/2/3 17/2/3
f 20/2/3 18/2/3 19/2/3
f 21/1/3 20/1/3 19/1/3
f 22/1/3 20/1/3 21/1/3
f 23/2/3 22/2/3 21/2/3
f 24/2/3 22/2/3 23/2/3
f 25/2/4 26/2/4 27/2/4
f 27/2/4 26/2/4 28/2/4
f 27/1/4 28/1/4 29/1/4
f 29/1/4 28/1/4 30/1/4
f 29/2/4 30/2/4 31/2/4
f 31/2/4 30/2/4 32/2/4
f 37/2/5 34/2/5 33/2/5
f 38/1/5 35/1/5 34/1/5
f 38/2/5 34/2/5 37/2/5
f 39/2/5 36/2/5 35/2/5
f 39/1/5 35/1/5 38/1/5
f 40/2/5 36/2/5 39/2/5
f 41/3/5 38/3/5 37/3/5
f 42/1/5 39/1/5 38/1/5
f 42/3/5 38/3/5 41/3/5
f 43/3/5 40/3/5 39/3/5
f 43/1/5 39/1/5 42/1/5
f 44/3/5 40/3/5 43/3/5
f 45/2/5 42/2/5 41/2/5
f 46/1/5 43/1/5 42/1/5
f 46/2/5 42/2/5 45/2/5
f 47/2/5 44/2/5 43/2/5
f 47/1/5 43/1/5 46/1/5
f 48/2/5 44/2/5 47/2/5
f 49/3/5 46/3/5 45/3/5
f 50/1/5 47/1/5 46/1/5
f 50/3/5 46/3/5 49/3/5
f 51/3/5 48/3/5 47/3/5
f 51/1/5 47/1/5 50/1/5
f 52/3/5 48/3/5 51/3/5
f 53/4/5 50/4/5 49/4/5
f 54/1/5 51/1/5 50/1/5
f 54/4/5 50/4/5 53/4/5
f 55/4/5 52/4/5 51/4/5
f 55/1/5 51/1/5 54/1/5
f 56/4/5 52/4/5 55/4/5
f 57/2/5 37/2/5 33/2/5
f 58/3/5 41/3/5 37/3/5
f 58/2/5 37/2/5 57/2/5
f 59/2/5 45/2/5 41/2/5
f 59/3/5 41/3/5 58/3/5
f 60/3/5 49/3/5 45/3/5
f 60/2/5 45/2/5 59/2/5
f 61/4/5 53/4/5 49/4/5
f 61/3/5 49/3/5 60/3/5
f 62/1/5 54/1/5 53/1/5
f 62/4/5 53/4/5 61/4/5
f 62/1/5 55/1/5 54/1/5
f 62/1/5 56/1/5 55/1/5
f 63/4/5 52/4/5 56/4/5
f 63/1/5 56/1/5 62/1/5
f 64/3/5 48/3/5 52/3/5
f 64/4/5 52/4/5 63/4/5
f 65/2/5 44/2/5 48/2/5
f 65/3/5 48/3/5 64/3/5
f 66/3/5 40/3/5 44/3/5
f 66/2/5 44/2/5 65/2/5
f 67/2/5 36/2/5 40/2/5
f 67/3/5 40/3/5 66/3/5
f 68/2/5 36/2/5 67/2/5
f 69/1/5 66/1/5 65/1/5
f 69/1/5 62/1/5 61/1/5
f 69/1/5 68/1/5 67/1/5
f 69/1/5 67/1/5 66/1/5
f 69/1/5 61/1/5 60/1/5
f 69/1/5 60/1/5 59/1/5
f 69/1/5 63/1/5 62/1/5
f 69/1/5 59/1/5 58/1/5
f 69/1/5 64/1/5 63/1/5
f 69/1/5 58/1/5 57/1/5
f 69/1/5 65/1/5 64/1/5
f 70/1/5 68/1/5 69/1/5
f 71/1/5 68/1/5 70/1/5
f 72/1/5 68/1/5 71/1/5
f 73/1/5 68/1/5 72/1/5
f 74/1/5 68/1/5 73/1/5
f 75/1/5 68/1/5 74/1/5
f 76/1/5 68/1/5 75/1/5
f 77/1/5 68/1/5 76/1/5
f 78/1/5 68/1/5 77/1/5
f 79/1/5 68/1/5 78/1/5
f 80/1/5 68/1/5 79/1/5
f 81/4/5 74/4/5 73/4/5
f 81/1/5 75/1/5 74/1/5
f 82/1/5 75/1/5 81/1/5
f 83/1/5 75/1/5 82/1/5
f 84/4/5 76/4/5 75/4/5
f 84/1/5 75/1/5 83/1/5
f 85/3/5 73/3/5 72/3/5
f 85/4/5 81/4/5 73/4/5
f 85/4/5 82/4/5 81/4/5
f 86/1/5 83/1/5 82/1/5
f 86/4/5 82/4/5 85/4/5
f 87/4/5 84/4/5 83/4/5
f 87/1/5 83/1/5 86/1/5
f 88/4/5 76/4/5 84/4/5
f 88/4/5 84/4/5 87/4/5
f 88/3/5 77/3/5 76/3/5
f 89/2/5 72/2/5 71/2/5
f 89/3/5 85/3/5 72/3/5
f 89/3/5 86/3/5 85/3/5
f 90/1/5 87/1/5 86/1/5
f 90/3/5 86/3/5 89/3/5
f 91/3/5 88/3/5 87/3/5
f 91/1/5 87/1/5 90/1/5
f 92/3/5 77/3/5 88/3/5
f 92/3/5 88/3/5 91/3/5
f 92/2/5 78/2/5 77/2/5
f 93/3/5 71/3/5 70/3/5
f 93/2/5 89/2/5 71/2/5
f 93/2/5 90/2/5 89/2/5
f 94/1/5 91/1/5 90/1/5
f 94/2/5 90/2/5 93/2/5
f 95/2/5 92/2/5 91/2/5
f 95/1/5 91/1/5 94/1/5
f 96/2/5 78/2/5 92/2/5
f 96/2/5 92/2/5 95/2/5
f 96/3/5 79/3/5 78/3/5
f 97/2/5 70/2/5 69/2/5
f 97/3/5 93/3/5 70/3/5
f 97/3/5 94/3/5 93/3/5
f 98/1/5 95/1/5 94/1/5
f 98/3/5 94/3/5 97/3/5
f 99/3/5 96/3/5 95/3/5
f 99/1/5 95/1/5 98/1/5
f 100/3/5 79/3/5 96/3/5
f 100/3/5 96/3/5 99/3/5
f 100/2/5 80/2/5 79/2/5
f 101/2/5 97/2/5 69/2/5
f 101/2/5 98/2/5 97/2/5
f 102/1/5 99/1/5 98/1/5
f 102/2/5 98/2/5 101/2/5
f 103/2/5 100/2/5 99/2/5
f 103/1/5 99/1/5 102/1/5
f 104/2/5 80/2/5 100/2/5
f 104/2/5 100/2/5 103/2/5
f 105/2/6 106/2/6 109/2/6
f 106/1/6 107/1/6 110/1/6
f 109/2/6 106/2/6 110/2/6
f 107/2/6 108/2/6 111/2/6
f 110/1/6 107/1/6 111/1/6
f 111/2/6 108/2/6 112/2/6
f 109/3/6 110/3/6 113/3/6
f 110/1/6 111/1/6 114/1/6
f 113/3/6 110/3/6 114/3/6
f 111/3/6 112/3/6 115/3/6
f 114/1/6 111/1/6 115/1/6
f 115/3/6 112/3/6 116/3/6
f 113/2/6 114/2/6 117/2/6
f 114/1/6 115/1/6 118/1/6
f 117/2/6 114/2/6 118/2/6
f 115/2/6 116/2/6 119/2/6
f 118/1/6 115/1/6 119/1/6
f 119/2/6 116/2/6 120/2/6
f 117/3/6 118/3/6 121/3/6
f 118/1/6 119/1/6 122/1/6
f 121/3/6 118/3/6 122/3/6
f 119/3/6 120/3/6 123/3/6
f 122/1/6 119/1/6 123/1/6
f 123/3/6 120/3/6 124/3/6
f 121/4/6 122/4/6 125/4/6
f 122/1/6 123/1/6 126/1/6
f 125/4/6 122/4/6 126/4/6
f 123/4/6 124/4/6 127/4/6
f 126/1/6 123/1/6 127/1/6
f 127/4/6 124/4/6 128/4/6
f 105/2/6 109/2/6 129/2/6
f 109/3/6 113/3/6 130/3/6
f 129/2/6 109/2/6 130/2/6
f 113/2/6 117/2/6 131/2/6
f 130/3/6 113/3/6 131/3/6
f 117/3/6 121/3/6 132/3/6
f 131/2/6 117/2/6 132/2/6
f 121/4/6 125/4/6 133/4/6
f 132/3/6 121/3/6 133/3/6
f 125/1/6 126/1/6 134/1/6
f 133/4/6 125/4/6 134/4/6
f 126/1/6 127/1/6 134/1/6
f 127/1/6 128/1/6 134/1/6
f 128/4/6 124/4/6 135/4/6
f 134/1/6 128/1/6 135/1/6
f 124/3/6 120/3/6 136/3/6
f 135/4/6 124/4/6 136/4/6
f 120/2/6 116/2/6 137/2/6
f 136/3/6 120/3/6 137/3/6
f 116/3/6 112/3/6 138/3/6
f 137/2/6 116/2/6 138/2/6
f 112/2/6 108/2/6 139/2/6
f 138/3/6 112/3/6 139/3/6
f 139/2/6 108/2/6 140/2/6
f 137/1/6 138/1/6 141/1/6
f 133/1/6 134/1/6 141/1/6
f 139/1/6 140/1/6 141/1/6
f 138/1/6 139/1/6 141/1/6
f 132/1/6 133/1/6 141/1/6
f 131/1/6 132/1/6 141/1/6
f 134/1/6 135/1/6 141/1/6
f 130/1/6 131/1/6 141/1/6
f 135/1/6 136/1/6 141/1/6
f 129/1/6 130/1/6 141/1/6
f 136/1/6 137/1/6 141/1/6
f 141/1/6 140/1/6 142/1/6
f 142/1/6 140/1/6 143/1/6
f 143/1/6 140/1/6 144/1/6
f 144/1/6 140/1/6 145/1/6
f 145/1/6 140/1/6 146/1/6
f 146/1/6 140/1/6 147/1/6
f 147/1/6 140/1/6 148/1/6
f 148/1/6 140/1/6 149/1/6
f 149/1/6 140/1/6 150/1/6
f 150/1/6 140/1/6 151/1/6
f 151/1/6 140/1/6 152/1/6
f 145/4/6 146/4/6 153/4/6
f 146/1/6 147/1/6 153/1/6
f 153/1/6 147/1/6 154/1/6
f 154/1/6 147/1/6 155/1/6
f 147/4/6 148/4/6 156/4/6
f 155/1/6 147/1/6 156/1/6
f 144/3/6 145/3/6 157/3/6
f 145/4/6 153/4/6 157/4/6
f 153/4/6 154/4/6 157/4/6
f 154/1/6 155/1/6 158/1/6
f 157/4/6 154/4/6 158/4/6
f 155/4/6 156/4/6 159/4/6
f 158/1/6 155/1/6 159/1/6
f 156/4/6 148/4/6 160/4/6
f 159/4/6 156/4/6 160/4/6
f 148/3/6 149/3/6 160/3/6
f 143/2/6 144/2/6 161/2/6
f 144/3/6 157/3/6 161/3/6
f 157/3/6 158/3/6 161/3/6
f 158/1/6 159/1/6 162/1/6
f 161/3/6 158/3/6 162/3/6
f 159/3/6 160/3/6 163/3/6
f 162/1/6 159/1/6 163/1/6
f 160/3/6 149/3/6 164/3/6
f 163/3/6 160/3/6 164/3/6
f 149/2/6 150/2/6 164/2/6
f 142/3/6 143/3/6 165/3/6
f 143/2/6 161/2/6 165/2/6
f 161/2/6 162/2/6 165/2/6
f 162/1/6 163/1/6 166/1/6
f 165/2/6 162/2/6 166/2/6
f 163/2/6 164/2/6 167/2/6
f 166/1/6 163/1/6 167/1/6
f 164/2/6 150/2/6 168/2/6
f 167/2/6 164/2/6 168/2/6
f 150/3/6 151/3/6 168/3/6
f 141/2/6 142/2/6 169/2/6
f 142/3/6 165/3/6 169/3/6
f 165/3/6 166/3/6 169/3/6
f 166/1/6 167/1/6 170/1/6
f 169/3/6 166/3/6 170/3/6
f 167/3/6 168/3/6 171/3/6
f 170/1/6 167/1/6 171/1/6
f 168/3/6 151/3/6 172/3/6
f 171/3/6 168/3/6 172/3/6
f 151/2/6 152/2/6 172/2/6
f 141/2/6 169/2/6 173/2/6
f 169/2/6 170/2/6 173/2/6
f 170/1/6 171/1/6 174/1/6
f 173/2/6 170/2/6 174/2/6
f 171/2/6 172/2/6 175/2/6
f 174/1/6 171/1/6 175/1/6
f 172/2/6 152/2/6 176/2/6
f 175/2/6 172/2/6 176/2/6
